<mxfile host="app.diagrams.net" agent="Mozilla/5.0 (Macintosh; Intel Mac OS X 10_15_7) AppleWebKit/537.36 (KHTML, like Gecko) Chrome/131.0.0.0 Safari/537.36" version="25.0.3" pages="2">
  <diagram name="Page-1" id="deqeyOW_WQNbW6h4rGe_">
    <mxGraphModel dx="4334" dy="607" grid="1" gridSize="10" guides="1" tooltips="1" connect="1" arrows="1" fold="1" page="1" pageScale="1" pageWidth="1654" pageHeight="1169" math="0" shadow="0">
      <root>
        <mxCell id="0" />
        <mxCell id="1" parent="0" />
        <mxCell id="ncHVxqRM9er0EpKqG4Er-182" value="register.minelab.com&lt;div&gt;warranty.minelab.com&lt;/div&gt;&lt;div&gt;verify.minelab.com&lt;/div&gt;&lt;div&gt;&lt;br&gt;&lt;/div&gt;" style="image;aspect=fixed;html=1;points=[];align=center;fontSize=12;image=img/lib/azure2/identity/Users.svg;" parent="1" vertex="1">
          <mxGeometry x="-2262" y="10" width="64" height="70" as="geometry" />
        </mxCell>
        <mxCell id="ncHVxqRM9er0EpKqG4Er-2" value="&lt;font style=&quot;font-size: 24px;&quot;&gt;SAP S/4HANA Private Cloud Edition - Tenant ID ODM&lt;/font&gt;" style="swimlane;whiteSpace=wrap;html=1;" parent="1" vertex="1">
          <mxGeometry x="-3291" y="598" width="1620" height="540" as="geometry" />
        </mxCell>
        <mxCell id="ncHVxqRM9er0EpKqG4Er-21" value="" style="group" parent="ncHVxqRM9er0EpKqG4Er-2" vertex="1" connectable="0">
          <mxGeometry x="21" y="328" width="420" height="200" as="geometry" />
        </mxCell>
        <mxCell id="ncHVxqRM9er0EpKqG4Er-6" value="" style="group" parent="ncHVxqRM9er0EpKqG4Er-21" vertex="1" connectable="0">
          <mxGeometry y="35" width="210" height="130" as="geometry" />
        </mxCell>
        <mxCell id="ncHVxqRM9er0EpKqG4Er-20" value="" style="group" parent="ncHVxqRM9er0EpKqG4Er-6" vertex="1" connectable="0">
          <mxGeometry width="210" height="130" as="geometry" />
        </mxCell>
        <mxCell id="ncHVxqRM9er0EpKqG4Er-5" value="HD4&lt;div&gt;vhodmhd4db (10.50.234.36)&lt;/div&gt;&lt;div&gt;vhodmhd4db01 (10.50.234.26)&lt;/div&gt;&lt;div&gt;Physical IP: 10.50.234.12&lt;/div&gt;&lt;div&gt;Schema:SAPHANADB&lt;/div&gt;&lt;div&gt;Instance: 06&lt;/div&gt;&lt;div&gt;500408643&lt;/div&gt;&lt;div&gt;&lt;br&gt;&lt;/div&gt;&lt;div&gt;&lt;br&gt;&lt;/div&gt;&lt;div&gt;&lt;br&gt;&lt;/div&gt;" style="text;html=1;align=center;verticalAlign=middle;whiteSpace=wrap;rounded=0;" parent="ncHVxqRM9er0EpKqG4Er-20" vertex="1">
          <mxGeometry x="114" y="100" width="210" height="30" as="geometry" />
        </mxCell>
        <mxCell id="ncHVxqRM9er0EpKqG4Er-3" value="HANADB" style="shape=datastore;whiteSpace=wrap;html=1;" parent="ncHVxqRM9er0EpKqG4Er-2" vertex="1">
          <mxGeometry x="210" y="340" width="60" height="60" as="geometry" />
        </mxCell>
        <mxCell id="ncHVxqRM9er0EpKqG4Er-16" style="edgeStyle=orthogonalEdgeStyle;rounded=0;orthogonalLoop=1;jettySize=auto;html=1;exitX=1;exitY=0.5;exitDx=0;exitDy=0;entryX=0;entryY=0.5;entryDx=0;entryDy=0;entryPerimeter=0;startArrow=classic;startFill=1;" parent="ncHVxqRM9er0EpKqG4Er-2" source="ncHVxqRM9er0EpKqG4Er-3" target="ncHVxqRM9er0EpKqG4Er-7" edge="1">
          <mxGeometry relative="1" as="geometry" />
        </mxCell>
        <mxCell id="ncHVxqRM9er0EpKqG4Er-17" value="" style="group" parent="ncHVxqRM9er0EpKqG4Er-2" vertex="1" connectable="0">
          <mxGeometry x="345" y="340" width="210" height="125" as="geometry" />
        </mxCell>
        <mxCell id="ncHVxqRM9er0EpKqG4Er-7" value="" style="fontColor=#0066CC;verticalAlign=top;verticalLabelPosition=bottom;labelPosition=center;align=center;html=1;outlineConnect=0;fillColor=#CCCCCC;strokeColor=#6881B3;gradientColor=none;gradientDirection=north;strokeWidth=2;shape=mxgraph.networks.server;" parent="ncHVxqRM9er0EpKqG4Er-17" vertex="1">
          <mxGeometry x="80" width="50" height="60" as="geometry" />
        </mxCell>
        <mxCell id="ncHVxqRM9er0EpKqG4Er-11" value="RD1&lt;br&gt;&lt;div&gt;vhodmrd1ci (10.50.234.34)&lt;/div&gt;&lt;div&gt;vhodmrd1cs (10.50.234.35)&lt;/div&gt;&lt;div&gt;Physical IP: 10.50.234.31&lt;br&gt;&lt;/div&gt;&lt;div&gt;Instance: 00 (CI), 01 (CS)&lt;/div&gt;&lt;div&gt;500408552&lt;/div&gt;&lt;div&gt;&lt;br&gt;&lt;/div&gt;" style="text;html=1;align=center;verticalAlign=middle;whiteSpace=wrap;rounded=0;" parent="ncHVxqRM9er0EpKqG4Er-17" vertex="1">
          <mxGeometry y="102" width="210" height="34" as="geometry" />
        </mxCell>
        <mxCell id="ncHVxqRM9er0EpKqG4Er-18" value="Development" style="swimlane;whiteSpace=wrap;html=1;" parent="ncHVxqRM9er0EpKqG4Er-2" vertex="1">
          <mxGeometry x="145" y="305" width="390" height="215" as="geometry">
            <mxRectangle x="10" y="235" width="110" height="30" as="alternateBounds" />
          </mxGeometry>
        </mxCell>
        <mxCell id="ncHVxqRM9er0EpKqG4Er-57" value="" style="group" parent="ncHVxqRM9er0EpKqG4Er-2" vertex="1" connectable="0">
          <mxGeometry x="595" y="305" width="420" height="200" as="geometry" />
        </mxCell>
        <mxCell id="ncHVxqRM9er0EpKqG4Er-27" style="edgeStyle=orthogonalEdgeStyle;rounded=0;orthogonalLoop=1;jettySize=auto;html=1;exitX=1;exitY=0.5;exitDx=0;exitDy=0;entryX=0;entryY=0.5;entryDx=0;entryDy=0;entryPerimeter=0;startArrow=classic;startFill=1;" parent="ncHVxqRM9er0EpKqG4Er-57" source="ncHVxqRM9er0EpKqG4Er-25" target="ncHVxqRM9er0EpKqG4Er-29" edge="1">
          <mxGeometry relative="1" as="geometry" />
        </mxCell>
        <mxCell id="ncHVxqRM9er0EpKqG4Er-31" value="QA" style="swimlane;whiteSpace=wrap;html=1;" parent="ncHVxqRM9er0EpKqG4Er-57" vertex="1">
          <mxGeometry x="10" width="390" height="200" as="geometry">
            <mxRectangle x="10" y="235" width="110" height="30" as="alternateBounds" />
          </mxGeometry>
        </mxCell>
        <mxCell id="ncHVxqRM9er0EpKqG4Er-24" value="" style="group" parent="ncHVxqRM9er0EpKqG4Er-57" vertex="1" connectable="0">
          <mxGeometry y="35" width="210" height="130" as="geometry" />
        </mxCell>
        <mxCell id="ncHVxqRM9er0EpKqG4Er-25" value="HANADB" style="shape=datastore;whiteSpace=wrap;html=1;" parent="ncHVxqRM9er0EpKqG4Er-24" vertex="1">
          <mxGeometry x="75" width="60" height="60" as="geometry" />
        </mxCell>
        <mxCell id="ncHVxqRM9er0EpKqG4Er-26" value="HQ4&lt;div&gt;vhodmhq4db (10.50.234.23)&lt;/div&gt;&lt;div&gt;vhodmhq4db01 (10.50.234.24)&lt;/div&gt;&lt;div&gt;Physical IP: 10.50.234.11&lt;/div&gt;&lt;div&gt;Schema:SAPHANADB&lt;/div&gt;&lt;div&gt;Instance: 04&lt;/div&gt;&lt;div&gt;&lt;br&gt;&lt;/div&gt;" style="text;html=1;align=center;verticalAlign=middle;whiteSpace=wrap;rounded=0;" parent="ncHVxqRM9er0EpKqG4Er-24" vertex="1">
          <mxGeometry y="100" width="210" height="30" as="geometry" />
        </mxCell>
        <mxCell id="ncHVxqRM9er0EpKqG4Er-29" value="" style="fontColor=#0066CC;verticalAlign=top;verticalLabelPosition=bottom;labelPosition=center;align=center;html=1;outlineConnect=0;fillColor=#CCCCCC;strokeColor=#6881B3;gradientColor=none;gradientDirection=north;strokeWidth=2;shape=mxgraph.networks.server;" parent="ncHVxqRM9er0EpKqG4Er-57" vertex="1">
          <mxGeometry x="290" y="35" width="50" height="60" as="geometry" />
        </mxCell>
        <mxCell id="ncHVxqRM9er0EpKqG4Er-30" value="RT1&lt;br&gt;&lt;div&gt;vhodmrt1ci (10.50.234.40)&lt;/div&gt;&lt;div&gt;vhodmrt1cs (10.50.234.41)&lt;/div&gt;&lt;div&gt;Physical IP: 10.50.234.38&lt;br&gt;&lt;/div&gt;&lt;div&gt;Instance: 00 (CI), 01 (CS)&lt;/div&gt;&lt;div&gt;&lt;br&gt;&lt;/div&gt;" style="text;html=1;align=center;verticalAlign=middle;whiteSpace=wrap;rounded=0;" parent="ncHVxqRM9er0EpKqG4Er-57" vertex="1">
          <mxGeometry x="210" y="126" width="210" height="34" as="geometry" />
        </mxCell>
        <mxCell id="ncHVxqRM9er0EpKqG4Er-58" value="" style="group" parent="ncHVxqRM9er0EpKqG4Er-2" vertex="1" connectable="0">
          <mxGeometry x="1055" y="305" width="420" height="200" as="geometry" />
        </mxCell>
        <mxCell id="ncHVxqRM9er0EpKqG4Er-59" style="edgeStyle=orthogonalEdgeStyle;rounded=0;orthogonalLoop=1;jettySize=auto;html=1;exitX=1;exitY=0.5;exitDx=0;exitDy=0;entryX=0;entryY=0.5;entryDx=0;entryDy=0;entryPerimeter=0;startArrow=classic;startFill=1;" parent="ncHVxqRM9er0EpKqG4Er-58" source="ncHVxqRM9er0EpKqG4Er-62" target="ncHVxqRM9er0EpKqG4Er-64" edge="1">
          <mxGeometry relative="1" as="geometry" />
        </mxCell>
        <mxCell id="ncHVxqRM9er0EpKqG4Er-60" value="Production" style="swimlane;whiteSpace=wrap;html=1;" parent="ncHVxqRM9er0EpKqG4Er-58" vertex="1">
          <mxGeometry x="10" width="390" height="200" as="geometry">
            <mxRectangle x="10" y="235" width="110" height="30" as="alternateBounds" />
          </mxGeometry>
        </mxCell>
        <mxCell id="ncHVxqRM9er0EpKqG4Er-61" value="" style="group" parent="ncHVxqRM9er0EpKqG4Er-58" vertex="1" connectable="0">
          <mxGeometry y="35" width="210" height="130" as="geometry" />
        </mxCell>
        <mxCell id="ncHVxqRM9er0EpKqG4Er-62" value="HANADB" style="shape=datastore;whiteSpace=wrap;html=1;" parent="ncHVxqRM9er0EpKqG4Er-61" vertex="1">
          <mxGeometry x="75" width="60" height="60" as="geometry" />
        </mxCell>
        <mxCell id="ncHVxqRM9er0EpKqG4Er-63" value="HP4&lt;div&gt;vhodmhp4db (10.50.234.27)&lt;/div&gt;&lt;div&gt;vhodmhp4db01 (10.50.234.29)&lt;/div&gt;&lt;div&gt;Physical IP: 10.50.234.13&lt;/div&gt;&lt;div&gt;Schema:SAPHANADB&lt;/div&gt;&lt;div&gt;Instance: 02&lt;/div&gt;&lt;div&gt;&lt;br&gt;&lt;/div&gt;" style="text;html=1;align=center;verticalAlign=middle;whiteSpace=wrap;rounded=0;" parent="ncHVxqRM9er0EpKqG4Er-61" vertex="1">
          <mxGeometry y="100" width="210" height="30" as="geometry" />
        </mxCell>
        <mxCell id="ncHVxqRM9er0EpKqG4Er-64" value="" style="fontColor=#0066CC;verticalAlign=top;verticalLabelPosition=bottom;labelPosition=center;align=center;html=1;outlineConnect=0;fillColor=#CCCCCC;strokeColor=#6881B3;gradientColor=none;gradientDirection=north;strokeWidth=2;shape=mxgraph.networks.server;" parent="ncHVxqRM9er0EpKqG4Er-58" vertex="1">
          <mxGeometry x="290" y="35" width="50" height="60" as="geometry" />
        </mxCell>
        <mxCell id="ncHVxqRM9er0EpKqG4Er-65" value="RP1&lt;br&gt;&lt;div&gt;vhodmrp1ci (10.50.234.45)&lt;/div&gt;&lt;div&gt;vhodmrp1cs (10.50.234.46)&lt;/div&gt;&lt;div&gt;Physical IP: 10.50.234.43&lt;br&gt;&lt;/div&gt;&lt;div&gt;Instance: 00 (CI), 01 (CS)&lt;/div&gt;&lt;div&gt;&lt;br&gt;&lt;/div&gt;" style="text;html=1;align=center;verticalAlign=middle;whiteSpace=wrap;rounded=0;" parent="ncHVxqRM9er0EpKqG4Er-58" vertex="1">
          <mxGeometry x="210" y="126" width="210" height="34" as="geometry" />
        </mxCell>
        <mxCell id="ncHVxqRM9er0EpKqG4Er-87" value="" style="fontColor=#0066CC;verticalAlign=top;verticalLabelPosition=bottom;labelPosition=center;align=center;html=1;outlineConnect=0;fillColor=#CCCCCC;strokeColor=#6881B3;gradientColor=none;gradientDirection=north;strokeWidth=2;shape=mxgraph.networks.desktop_pc;" parent="ncHVxqRM9er0EpKqG4Er-2" vertex="1">
          <mxGeometry x="171" y="99" width="30" height="60" as="geometry" />
        </mxCell>
        <mxCell id="ncHVxqRM9er0EpKqG4Er-88" value="CI-DS Agent&lt;br&gt;DS1&lt;div&gt;Non-Prod&lt;/div&gt;&lt;div&gt;500437493&lt;/div&gt;" style="text;html=1;align=center;verticalAlign=middle;whiteSpace=wrap;rounded=0;" parent="ncHVxqRM9er0EpKqG4Er-2" vertex="1">
          <mxGeometry x="81" y="114" width="80" height="30" as="geometry" />
        </mxCell>
        <mxCell id="ncHVxqRM9er0EpKqG4Er-89" style="edgeStyle=orthogonalEdgeStyle;rounded=0;orthogonalLoop=1;jettySize=auto;html=1;exitX=0.5;exitY=1;exitDx=0;exitDy=0;exitPerimeter=0;fillColor=#dae8fc;strokeColor=#6c8ebf;" parent="ncHVxqRM9er0EpKqG4Er-2" source="ncHVxqRM9er0EpKqG4Er-87" target="ncHVxqRM9er0EpKqG4Er-7" edge="1">
          <mxGeometry relative="1" as="geometry">
            <Array as="points">
              <mxPoint x="186" y="290" />
              <mxPoint x="441" y="290" />
            </Array>
          </mxGeometry>
        </mxCell>
        <mxCell id="ncHVxqRM9er0EpKqG4Er-96" style="edgeStyle=orthogonalEdgeStyle;rounded=0;orthogonalLoop=1;jettySize=auto;html=1;endArrow=none;endFill=0;startArrow=classic;startFill=1;entryX=0.5;entryY=1;entryDx=0;entryDy=0;entryPerimeter=0;fillColor=#dae8fc;strokeColor=#6c8ebf;" parent="ncHVxqRM9er0EpKqG4Er-2" source="ncHVxqRM9er0EpKqG4Er-29" target="ncHVxqRM9er0EpKqG4Er-87" edge="1">
          <mxGeometry relative="1" as="geometry">
            <Array as="points">
              <mxPoint x="901" y="290" />
              <mxPoint x="186" y="290" />
            </Array>
          </mxGeometry>
        </mxCell>
        <mxCell id="ncHVxqRM9er0EpKqG4Er-97" value="" style="fontColor=#0066CC;verticalAlign=top;verticalLabelPosition=bottom;labelPosition=center;align=center;html=1;outlineConnect=0;fillColor=#CCCCCC;strokeColor=#6881B3;gradientColor=none;gradientDirection=north;strokeWidth=2;shape=mxgraph.networks.desktop_pc;" parent="ncHVxqRM9er0EpKqG4Er-2" vertex="1">
          <mxGeometry x="401" y="99" width="30" height="60" as="geometry" />
        </mxCell>
        <mxCell id="ncHVxqRM9er0EpKqG4Er-99" value="CI-DS Agent&lt;br&gt;PD1&lt;div&gt;Prod&lt;/div&gt;&lt;div&gt;500437492&lt;/div&gt;" style="text;html=1;align=center;verticalAlign=middle;whiteSpace=wrap;rounded=0;" parent="ncHVxqRM9er0EpKqG4Er-2" vertex="1">
          <mxGeometry x="311" y="114" width="80" height="30" as="geometry" />
        </mxCell>
        <mxCell id="ncHVxqRM9er0EpKqG4Er-105" style="edgeStyle=orthogonalEdgeStyle;rounded=0;orthogonalLoop=1;jettySize=auto;html=1;exitX=0.5;exitY=1;exitDx=0;exitDy=0;exitPerimeter=0;fillColor=#dae8fc;strokeColor=#6c8ebf;" parent="ncHVxqRM9er0EpKqG4Er-2" source="ncHVxqRM9er0EpKqG4Er-97" target="ncHVxqRM9er0EpKqG4Er-64" edge="1">
          <mxGeometry relative="1" as="geometry">
            <Array as="points">
              <mxPoint x="416" y="270" />
              <mxPoint x="1361" y="270" />
            </Array>
          </mxGeometry>
        </mxCell>
        <mxCell id="ncHVxqRM9er0EpKqG4Er-118" style="edgeStyle=orthogonalEdgeStyle;rounded=0;orthogonalLoop=1;jettySize=auto;html=1;exitX=0.5;exitY=1;exitDx=0;exitDy=0;exitPerimeter=0;fillColor=#ffe6cc;strokeColor=#d79b00;" parent="ncHVxqRM9er0EpKqG4Er-2" source="ncHVxqRM9er0EpKqG4Er-116" target="ncHVxqRM9er0EpKqG4Er-64" edge="1">
          <mxGeometry relative="1" as="geometry">
            <Array as="points">
              <mxPoint x="1481" y="250" />
              <mxPoint x="1381" y="250" />
            </Array>
          </mxGeometry>
        </mxCell>
        <mxCell id="ncHVxqRM9er0EpKqG4Er-122" style="edgeStyle=orthogonalEdgeStyle;rounded=0;orthogonalLoop=1;jettySize=auto;html=1;fillColor=#ffe6cc;strokeColor=#d79b00;exitX=0.5;exitY=1;exitDx=0;exitDy=0;exitPerimeter=0;" parent="ncHVxqRM9er0EpKqG4Er-2" source="ncHVxqRM9er0EpKqG4Er-116" target="ncHVxqRM9er0EpKqG4Er-29" edge="1">
          <mxGeometry relative="1" as="geometry">
            <Array as="points">
              <mxPoint x="1481" y="250" />
              <mxPoint x="921" y="250" />
            </Array>
          </mxGeometry>
        </mxCell>
        <mxCell id="ncHVxqRM9er0EpKqG4Er-123" style="edgeStyle=orthogonalEdgeStyle;rounded=0;orthogonalLoop=1;jettySize=auto;html=1;fillColor=#ffe6cc;strokeColor=#d79b00;exitX=0.5;exitY=1;exitDx=0;exitDy=0;exitPerimeter=0;" parent="ncHVxqRM9er0EpKqG4Er-2" source="ncHVxqRM9er0EpKqG4Er-116" target="ncHVxqRM9er0EpKqG4Er-7" edge="1">
          <mxGeometry relative="1" as="geometry">
            <Array as="points">
              <mxPoint x="1481" y="250" />
              <mxPoint x="461" y="250" />
            </Array>
          </mxGeometry>
        </mxCell>
        <mxCell id="ncHVxqRM9er0EpKqG4Er-116" value="" style="verticalAlign=top;verticalLabelPosition=bottom;labelPosition=center;align=center;html=1;outlineConnect=0;fillColor=#ffe6cc;strokeColor=#d79b00;gradientDirection=north;strokeWidth=2;shape=mxgraph.networks.desktop_pc;" parent="ncHVxqRM9er0EpKqG4Er-2" vertex="1">
          <mxGeometry x="1466" y="99" width="30" height="60" as="geometry" />
        </mxCell>
        <mxCell id="ncHVxqRM9er0EpKqG4Er-117" value="SAP Analytics Agent&lt;br&gt;PSA&lt;br&gt;&lt;div&gt;Prod&lt;/div&gt;&lt;div&gt;500408381&lt;/div&gt;" style="text;html=1;align=center;verticalAlign=middle;whiteSpace=wrap;rounded=0;" parent="ncHVxqRM9er0EpKqG4Er-2" vertex="1">
          <mxGeometry x="1496" y="114" width="129" height="30" as="geometry" />
        </mxCell>
        <mxCell id="ncHVxqRM9er0EpKqG4Er-135" value="Cloud Connector (Non-Prod)&lt;div&gt;DCL&lt;/div&gt;&lt;div&gt;vhodmdclcc01 (10.50.234.19)&lt;/div&gt;&lt;div&gt;&lt;br&gt;&lt;/div&gt;" style="sketch=0;pointerEvents=1;shadow=0;dashed=0;html=1;strokeColor=#82b366;labelPosition=center;verticalLabelPosition=bottom;verticalAlign=top;align=center;fillColor=#d5e8d4;shape=mxgraph.mscae.intune.intune_connector;" parent="ncHVxqRM9er0EpKqG4Er-2" vertex="1">
          <mxGeometry x="650" y="100" width="82" height="59" as="geometry" />
        </mxCell>
        <mxCell id="ncHVxqRM9er0EpKqG4Er-136" style="edgeStyle=orthogonalEdgeStyle;rounded=0;orthogonalLoop=1;jettySize=auto;html=1;exitX=0;exitY=0.5;exitDx=0;exitDy=0;exitPerimeter=0;entryX=0.5;entryY=0;entryDx=0;entryDy=0;entryPerimeter=0;fillColor=#d5e8d4;strokeColor=#82b366;" parent="ncHVxqRM9er0EpKqG4Er-2" source="ncHVxqRM9er0EpKqG4Er-135" target="ncHVxqRM9er0EpKqG4Er-7" edge="1">
          <mxGeometry relative="1" as="geometry">
            <Array as="points">
              <mxPoint x="450" y="130" />
            </Array>
          </mxGeometry>
        </mxCell>
        <mxCell id="ncHVxqRM9er0EpKqG4Er-137" style="edgeStyle=orthogonalEdgeStyle;rounded=0;orthogonalLoop=1;jettySize=auto;html=1;fillColor=#d5e8d4;strokeColor=#82b366;" parent="ncHVxqRM9er0EpKqG4Er-2" source="ncHVxqRM9er0EpKqG4Er-135" target="ncHVxqRM9er0EpKqG4Er-29" edge="1">
          <mxGeometry relative="1" as="geometry">
            <Array as="points">
              <mxPoint x="911" y="130" />
            </Array>
          </mxGeometry>
        </mxCell>
        <mxCell id="ncHVxqRM9er0EpKqG4Er-141" style="edgeStyle=orthogonalEdgeStyle;rounded=0;orthogonalLoop=1;jettySize=auto;html=1;startArrow=classic;startFill=1;fillColor=#d5e8d4;strokeColor=#82b366;" parent="ncHVxqRM9er0EpKqG4Er-2" source="ncHVxqRM9er0EpKqG4Er-138" target="ncHVxqRM9er0EpKqG4Er-139" edge="1">
          <mxGeometry relative="1" as="geometry">
            <Array as="points">
              <mxPoint x="1156" y="120" />
              <mxPoint x="1156" y="120" />
            </Array>
          </mxGeometry>
        </mxCell>
        <mxCell id="ncHVxqRM9er0EpKqG4Er-144" style="edgeStyle=orthogonalEdgeStyle;rounded=0;orthogonalLoop=1;jettySize=auto;html=1;fillColor=#d5e8d4;strokeColor=#82b366;" parent="ncHVxqRM9er0EpKqG4Er-2" source="ncHVxqRM9er0EpKqG4Er-138" target="ncHVxqRM9er0EpKqG4Er-64" edge="1">
          <mxGeometry relative="1" as="geometry">
            <Array as="points">
              <mxPoint x="1371" y="130" />
            </Array>
          </mxGeometry>
        </mxCell>
        <mxCell id="ncHVxqRM9er0EpKqG4Er-138" value="Cloud Connector (Prod - Master)&lt;div&gt;PCL&lt;/div&gt;&lt;div&gt;vhodmpclcc01 (10.50.234.20)&lt;/div&gt;&lt;div&gt;&lt;br&gt;&lt;/div&gt;" style="sketch=0;pointerEvents=1;shadow=0;dashed=0;html=1;strokeColor=#82b366;labelPosition=center;verticalLabelPosition=bottom;verticalAlign=top;align=center;fillColor=#d5e8d4;shape=mxgraph.mscae.intune.intune_connector;" parent="ncHVxqRM9er0EpKqG4Er-2" vertex="1">
          <mxGeometry x="1020" y="100" width="82" height="59" as="geometry" />
        </mxCell>
        <mxCell id="ncHVxqRM9er0EpKqG4Er-139" value="Cloud Connector (Prod - Shadow)&lt;div&gt;PCL&lt;/div&gt;&lt;div&gt;vhodmpclcc02 (10.50.233.6)&lt;/div&gt;&lt;div&gt;&lt;br&gt;&lt;/div&gt;" style="sketch=0;pointerEvents=1;shadow=0;dashed=0;html=1;strokeColor=#82b366;labelPosition=center;verticalLabelPosition=bottom;verticalAlign=top;align=center;fillColor=#d5e8d4;shape=mxgraph.mscae.intune.intune_connector;" parent="ncHVxqRM9er0EpKqG4Er-2" vertex="1">
          <mxGeometry x="1211" y="100" width="82" height="59" as="geometry" />
        </mxCell>
        <mxCell id="ncHVxqRM9er0EpKqG4Er-68" value="&lt;font style=&quot;font-size: 24px;&quot;&gt;IBP Non-Prod&lt;/font&gt;" style="html=1;whiteSpace=wrap;strokeColor=none;fillColor=#0079D6;labelPosition=center;verticalLabelPosition=middle;verticalAlign=top;align=center;fontSize=12;outlineConnect=0;spacingTop=-6;fontColor=#FFFFFF;sketch=0;shape=mxgraph.sitemap.cloud;" parent="1" vertex="1">
          <mxGeometry x="-3240" y="216" width="170" height="114" as="geometry" />
        </mxCell>
        <mxCell id="ncHVxqRM9er0EpKqG4Er-152" style="edgeStyle=orthogonalEdgeStyle;rounded=0;orthogonalLoop=1;jettySize=auto;html=1;fillColor=#dae8fc;strokeColor=#6c8ebf;" parent="1" source="ncHVxqRM9er0EpKqG4Er-69" target="ncHVxqRM9er0EpKqG4Er-84" edge="1">
          <mxGeometry relative="1" as="geometry">
            <Array as="points">
              <mxPoint x="-3155" y="400" />
              <mxPoint x="-2986" y="400" />
            </Array>
          </mxGeometry>
        </mxCell>
        <mxCell id="ncHVxqRM9er0EpKqG4Er-69" value="&lt;div&gt;C53&lt;/div&gt;my310193.scmibp1.ondmeand.com&lt;div&gt;743792815&lt;/div&gt;" style="text;html=1;align=center;verticalAlign=middle;whiteSpace=wrap;rounded=0;" parent="1" vertex="1">
          <mxGeometry x="-3185" y="349" width="60" height="30" as="geometry" />
        </mxCell>
        <mxCell id="ncHVxqRM9er0EpKqG4Er-84" value="" style="fontColor=#0066CC;verticalAlign=top;verticalLabelPosition=bottom;labelPosition=center;align=center;html=1;outlineConnect=0;fillColor=#CCCCCC;strokeColor=#6881B3;gradientColor=none;gradientDirection=north;strokeWidth=2;shape=mxgraph.networks.proxy_server;" parent="1" vertex="1">
          <mxGeometry x="-3023.5" y="446" width="75" height="80" as="geometry" />
        </mxCell>
        <mxCell id="ncHVxqRM9er0EpKqG4Er-85" value="&lt;div&gt;CPI-DS&lt;/div&gt;DSAP21008&lt;div&gt;hcids3.ap1.hana.ondemand.com&lt;/div&gt;&lt;div&gt;743940400&lt;/div&gt;" style="text;html=1;align=center;verticalAlign=middle;whiteSpace=wrap;rounded=0;" parent="1" vertex="1">
          <mxGeometry x="-3023" y="540" width="67" height="30" as="geometry" />
        </mxCell>
        <mxCell id="ncHVxqRM9er0EpKqG4Er-100" style="edgeStyle=orthogonalEdgeStyle;rounded=0;orthogonalLoop=1;jettySize=auto;html=1;entryX=0.88;entryY=0.5;entryDx=0;entryDy=0;entryPerimeter=0;fillColor=#dae8fc;strokeColor=#6c8ebf;" parent="1" source="ncHVxqRM9er0EpKqG4Er-97" target="ncHVxqRM9er0EpKqG4Er-84" edge="1">
          <mxGeometry relative="1" as="geometry">
            <Array as="points">
              <mxPoint x="-2875" y="486" />
            </Array>
          </mxGeometry>
        </mxCell>
        <mxCell id="ncHVxqRM9er0EpKqG4Er-101" value="&lt;font style=&quot;font-size: 24px;&quot;&gt;IBP Prod&lt;/font&gt;" style="html=1;whiteSpace=wrap;strokeColor=none;fillColor=#0079D6;labelPosition=center;verticalLabelPosition=middle;verticalAlign=top;align=center;fontSize=12;outlineConnect=0;spacingTop=-6;fontColor=#FFFFFF;sketch=0;shape=mxgraph.sitemap.cloud;" parent="1" vertex="1">
          <mxGeometry x="-2929" y="216" width="171" height="114" as="geometry" />
        </mxCell>
        <mxCell id="ncHVxqRM9er0EpKqG4Er-103" value="&lt;div&gt;CXB&lt;/div&gt;my311713.scmibp1.ondemand.com&lt;br&gt;&lt;div&gt;744417200&lt;/div&gt;" style="text;html=1;align=center;verticalAlign=middle;whiteSpace=wrap;rounded=0;" parent="1" vertex="1">
          <mxGeometry x="-2875.5" y="349" width="60" height="30" as="geometry" />
        </mxCell>
        <mxCell id="ncHVxqRM9er0EpKqG4Er-104" value="SAP Identity Authentication Service (Non-Prod)&lt;div&gt;a1h65h2xm.accounts.ondemand.com&lt;/div&gt;" style="verticalLabelPosition=bottom;html=1;verticalAlign=top;align=center;strokeColor=none;fillColor=#00BEF2;shape=mxgraph.azure.multi_factor_authentication;pointerEvents=1;" parent="1" vertex="1">
          <mxGeometry x="-3167.5" y="110" width="25" height="50" as="geometry" />
        </mxCell>
        <mxCell id="ncHVxqRM9er0EpKqG4Er-159" value="" style="edgeStyle=orthogonalEdgeStyle;rounded=0;orthogonalLoop=1;jettySize=auto;html=1;" parent="1" source="ncHVxqRM9er0EpKqG4Er-107" target="ncHVxqRM9er0EpKqG4Er-101" edge="1">
          <mxGeometry relative="1" as="geometry" />
        </mxCell>
        <mxCell id="ncHVxqRM9er0EpKqG4Er-107" value="SAP Identity Authentication Service (Prod)&lt;div&gt;ajarfrl29.accounts.ondemand.com&lt;/div&gt;" style="verticalLabelPosition=bottom;html=1;verticalAlign=top;align=center;strokeColor=none;fillColor=#00BEF2;shape=mxgraph.azure.multi_factor_authentication;pointerEvents=1;" parent="1" vertex="1">
          <mxGeometry x="-2856" y="110" width="25" height="50" as="geometry" />
        </mxCell>
        <mxCell id="ncHVxqRM9er0EpKqG4Er-108" style="edgeStyle=orthogonalEdgeStyle;rounded=0;orthogonalLoop=1;jettySize=auto;html=1;exitX=0.5;exitY=0.985;exitDx=0;exitDy=0;exitPerimeter=0;entryX=0.5;entryY=0;entryDx=0;entryDy=0;entryPerimeter=0;" parent="1" source="ncHVxqRM9er0EpKqG4Er-107" target="ncHVxqRM9er0EpKqG4Er-101" edge="1">
          <mxGeometry relative="1" as="geometry" />
        </mxCell>
        <mxCell id="ncHVxqRM9er0EpKqG4Er-120" style="edgeStyle=orthogonalEdgeStyle;rounded=0;orthogonalLoop=1;jettySize=auto;html=1;fillColor=#f8cecc;strokeColor=#b85450;" parent="1" source="ncHVxqRM9er0EpKqG4Er-110" target="ncHVxqRM9er0EpKqG4Er-116" edge="1">
          <mxGeometry relative="1" as="geometry" />
        </mxCell>
        <mxCell id="ncHVxqRM9er0EpKqG4Er-110" value="&lt;div&gt;codan.ap10.hcs.cloud.sap&lt;/div&gt;&lt;div&gt;744191349&lt;/div&gt;" style="text;html=1;align=center;verticalAlign=middle;whiteSpace=wrap;rounded=0;" parent="1" vertex="1">
          <mxGeometry x="-1840" y="360" width="60" height="30" as="geometry" />
        </mxCell>
        <mxCell id="ncHVxqRM9er0EpKqG4Er-115" value="&lt;font style=&quot;font-size: 24px;&quot;&gt;SAC (Single Tenant)&lt;/font&gt;" style="html=1;whiteSpace=wrap;strokeColor=none;fillColor=#0079D6;labelPosition=center;verticalLabelPosition=middle;verticalAlign=top;align=center;fontSize=12;outlineConnect=0;spacingTop=-6;fontColor=#FFFFFF;sketch=0;shape=mxgraph.sitemap.cloud;" parent="1" vertex="1">
          <mxGeometry x="-1925" y="276" width="230" height="114" as="geometry" />
        </mxCell>
        <mxCell id="bUl5pF7d7_YkjjmKOAPD-8" style="edgeStyle=orthogonalEdgeStyle;rounded=0;orthogonalLoop=1;jettySize=auto;html=1;fillColor=#647687;strokeColor=#314354;endArrow=none;endFill=0;startArrow=classic;startFill=1;" parent="1" source="ncHVxqRM9er0EpKqG4Er-124" edge="1">
          <mxGeometry relative="1" as="geometry">
            <mxPoint x="-2360" y="950" as="targetPoint" />
            <Array as="points">
              <mxPoint x="-2530" y="690" />
              <mxPoint x="-2359" y="690" />
            </Array>
          </mxGeometry>
        </mxCell>
        <mxCell id="bUl5pF7d7_YkjjmKOAPD-9" style="edgeStyle=orthogonalEdgeStyle;rounded=0;orthogonalLoop=1;jettySize=auto;html=1;entryX=0;entryY=0.25;entryDx=0;entryDy=0;fillColor=#647687;strokeColor=#314354;" parent="1" source="ncHVxqRM9er0EpKqG4Er-124" target="ncHVxqRM9er0EpKqG4Er-145" edge="1">
          <mxGeometry relative="1" as="geometry">
            <Array as="points">
              <mxPoint x="-2630" y="364" />
            </Array>
          </mxGeometry>
        </mxCell>
        <mxCell id="ncHVxqRM9er0EpKqG4Er-124" value="&lt;font style=&quot;font-size: 24px;&quot;&gt;SCI Non-Prod&lt;/font&gt;" style="html=1;whiteSpace=wrap;strokeColor=none;fillColor=#0079D6;labelPosition=center;verticalLabelPosition=middle;verticalAlign=top;align=center;fontSize=12;outlineConnect=0;spacingTop=-6;fontColor=#FFFFFF;sketch=0;shape=mxgraph.sitemap.cloud;" parent="1" vertex="1">
          <mxGeometry x="-2676" y="453" width="220" height="124" as="geometry" />
        </mxCell>
        <mxCell id="ncHVxqRM9er0EpKqG4Er-143" style="edgeStyle=orthogonalEdgeStyle;rounded=0;orthogonalLoop=1;jettySize=auto;html=1;startArrow=classic;startFill=1;fillColor=#d5e8d4;strokeColor=#82b366;" parent="1" source="ncHVxqRM9er0EpKqG4Er-125" edge="1">
          <mxGeometry relative="1" as="geometry">
            <mxPoint x="-2261" y="720" as="targetPoint" />
            <Array as="points">
              <mxPoint x="-2261" y="660" />
              <mxPoint x="-2261" y="660" />
            </Array>
          </mxGeometry>
        </mxCell>
        <mxCell id="bUl5pF7d7_YkjjmKOAPD-7" style="edgeStyle=orthogonalEdgeStyle;rounded=0;orthogonalLoop=1;jettySize=auto;html=1;entryX=1;entryY=0.25;entryDx=0;entryDy=0;fillColor=#647687;strokeColor=#314354;" parent="1" source="ncHVxqRM9er0EpKqG4Er-125" target="ncHVxqRM9er0EpKqG4Er-145" edge="1">
          <mxGeometry relative="1" as="geometry">
            <Array as="points">
              <mxPoint x="-2200" y="364" />
            </Array>
          </mxGeometry>
        </mxCell>
        <mxCell id="ncHVxqRM9er0EpKqG4Er-125" value="&lt;font style=&quot;font-size: 24px;&quot;&gt;SCI Prod&lt;/font&gt;" style="html=1;whiteSpace=wrap;strokeColor=none;fillColor=#0079D6;labelPosition=center;verticalLabelPosition=middle;verticalAlign=top;align=center;fontSize=12;outlineConnect=0;spacingTop=-6;fontColor=#FFFFFF;sketch=0;shape=mxgraph.sitemap.cloud;" parent="1" vertex="1">
          <mxGeometry x="-2371" y="455" width="220" height="124" as="geometry" />
        </mxCell>
        <mxCell id="ncHVxqRM9er0EpKqG4Er-126" value="&lt;font style=&quot;font-size: 24px;&quot;&gt;BTP Dev&lt;/font&gt;" style="html=1;whiteSpace=wrap;strokeColor=none;fillColor=#0079D6;labelPosition=center;verticalLabelPosition=middle;verticalAlign=top;align=center;fontSize=12;outlineConnect=0;spacingTop=-6;fontColor=#FFFFFF;sketch=0;shape=mxgraph.sitemap.cloud;" parent="1" vertex="1">
          <mxGeometry x="-2690" y="178" width="170" height="110" as="geometry" />
        </mxCell>
        <mxCell id="ncHVxqRM9er0EpKqG4Er-127" value="&lt;font style=&quot;font-size: 24px;&quot;&gt;BTP Test&lt;/font&gt;" style="html=1;whiteSpace=wrap;strokeColor=none;fillColor=#0079D6;labelPosition=center;verticalLabelPosition=middle;verticalAlign=top;align=center;fontSize=12;outlineConnect=0;spacingTop=-6;fontColor=#FFFFFF;sketch=0;shape=mxgraph.sitemap.cloud;" parent="1" vertex="1">
          <mxGeometry x="-2450" y="178" width="170" height="110" as="geometry" />
        </mxCell>
        <mxCell id="ncHVxqRM9er0EpKqG4Er-128" value="&lt;font style=&quot;font-size: 24px;&quot;&gt;BTP Prod&lt;/font&gt;" style="html=1;whiteSpace=wrap;strokeColor=none;fillColor=#0079D6;labelPosition=center;verticalLabelPosition=middle;verticalAlign=top;align=center;fontSize=12;outlineConnect=0;spacingTop=-6;fontColor=#FFFFFF;sketch=0;shape=mxgraph.sitemap.cloud;" parent="1" vertex="1">
          <mxGeometry x="-2190" y="178" width="170" height="110" as="geometry" />
        </mxCell>
        <mxCell id="ncHVxqRM9er0EpKqG4Er-131" style="edgeStyle=orthogonalEdgeStyle;rounded=0;orthogonalLoop=1;jettySize=auto;html=1;entryX=0.5;entryY=0;entryDx=0;entryDy=0;entryPerimeter=0;" parent="1" source="ncHVxqRM9er0EpKqG4Er-104" target="ncHVxqRM9er0EpKqG4Er-68" edge="1">
          <mxGeometry relative="1" as="geometry" />
        </mxCell>
        <mxCell id="ncHVxqRM9er0EpKqG4Er-149" style="edgeStyle=orthogonalEdgeStyle;rounded=0;orthogonalLoop=1;jettySize=auto;html=1;fillColor=#d5e8d4;strokeColor=#82b366;" parent="1" edge="1">
          <mxGeometry relative="1" as="geometry">
            <mxPoint x="-2566" y="451" as="targetPoint" />
            <mxPoint x="-2466" y="386.0000000000002" as="sourcePoint" />
          </mxGeometry>
        </mxCell>
        <mxCell id="ncHVxqRM9er0EpKqG4Er-150" style="edgeStyle=orthogonalEdgeStyle;rounded=0;orthogonalLoop=1;jettySize=auto;html=1;fillColor=#d5e8d4;strokeColor=#82b366;" parent="1" edge="1">
          <mxGeometry relative="1" as="geometry">
            <mxPoint x="-2266" y="451" as="targetPoint" />
            <mxPoint x="-2346" y="386.0000000000002" as="sourcePoint" />
          </mxGeometry>
        </mxCell>
        <mxCell id="ncHVxqRM9er0EpKqG4Er-145" value="Third-party Cloud&lt;br&gt;Magento, SANA" style="image;html=1;image=img/lib/clip_art/networking/Cloud_Rack_128x128.png" parent="1" vertex="1">
          <mxGeometry x="-2467" y="341" width="120" height="90" as="geometry" />
        </mxCell>
        <mxCell id="ncHVxqRM9er0EpKqG4Er-158" style="edgeStyle=orthogonalEdgeStyle;rounded=0;orthogonalLoop=1;jettySize=auto;html=1;entryX=0.5;entryY=0;entryDx=0;entryDy=0;entryPerimeter=0;fillColor=#dae8fc;strokeColor=#6c8ebf;" parent="1" source="ncHVxqRM9er0EpKqG4Er-103" target="ncHVxqRM9er0EpKqG4Er-84" edge="1">
          <mxGeometry relative="1" as="geometry">
            <Array as="points">
              <mxPoint x="-2845" y="400" />
              <mxPoint x="-2986" y="400" />
            </Array>
          </mxGeometry>
        </mxCell>
        <mxCell id="ncHVxqRM9er0EpKqG4Er-167" value="SAP Identity Authentication Service (Non-Prod)&lt;div&gt;a1h65h2xm.accounts.ondemand.com&lt;/div&gt;" style="verticalLabelPosition=bottom;html=1;verticalAlign=top;align=center;strokeColor=none;fillColor=#00BEF2;shape=mxgraph.azure.multi_factor_authentication;pointerEvents=1;" parent="1" vertex="1">
          <mxGeometry x="-2377.5" y="78" width="25" height="50" as="geometry" />
        </mxCell>
        <mxCell id="ncHVxqRM9er0EpKqG4Er-168" style="edgeStyle=orthogonalEdgeStyle;rounded=0;orthogonalLoop=1;jettySize=auto;html=1;entryX=0.5;entryY=0;entryDx=0;entryDy=0;entryPerimeter=0;" parent="1" source="ncHVxqRM9er0EpKqG4Er-167" target="ncHVxqRM9er0EpKqG4Er-127" edge="1">
          <mxGeometry relative="1" as="geometry" />
        </mxCell>
        <mxCell id="ncHVxqRM9er0EpKqG4Er-169" style="edgeStyle=orthogonalEdgeStyle;rounded=0;orthogonalLoop=1;jettySize=auto;html=1;entryX=0.5;entryY=0;entryDx=0;entryDy=0;entryPerimeter=0;" parent="1" source="ncHVxqRM9er0EpKqG4Er-163" target="ncHVxqRM9er0EpKqG4Er-128" edge="1">
          <mxGeometry relative="1" as="geometry" />
        </mxCell>
        <mxCell id="ncHVxqRM9er0EpKqG4Er-170" style="edgeStyle=orthogonalEdgeStyle;rounded=0;orthogonalLoop=1;jettySize=auto;html=1;entryX=0;entryY=0.5;entryDx=0;entryDy=0;entryPerimeter=0;fillColor=#d5e8d4;strokeColor=#82b366;" parent="1" source="ncHVxqRM9er0EpKqG4Er-126" target="ncHVxqRM9er0EpKqG4Er-135" edge="1">
          <mxGeometry relative="1" as="geometry">
            <Array as="points">
              <mxPoint x="-2730" y="223" />
              <mxPoint x="-2730" y="660" />
              <mxPoint x="-2641" y="660" />
            </Array>
          </mxGeometry>
        </mxCell>
        <mxCell id="ncHVxqRM9er0EpKqG4Er-173" value="SAP Identity Authentication Service (Prod)&lt;div&gt;ajarfrl29.accounts.ondemand.com&lt;/div&gt;" style="verticalLabelPosition=bottom;html=1;verticalAlign=top;align=center;strokeColor=none;fillColor=#00BEF2;shape=mxgraph.azure.multi_factor_authentication;pointerEvents=1;" parent="1" vertex="1">
          <mxGeometry x="-1822.5" y="176" width="25" height="50" as="geometry" />
        </mxCell>
        <mxCell id="ncHVxqRM9er0EpKqG4Er-174" style="edgeStyle=orthogonalEdgeStyle;rounded=0;orthogonalLoop=1;jettySize=auto;html=1;entryX=0.5;entryY=0;entryDx=0;entryDy=0;entryPerimeter=0;" parent="1" source="ncHVxqRM9er0EpKqG4Er-173" target="ncHVxqRM9er0EpKqG4Er-115" edge="1">
          <mxGeometry relative="1" as="geometry" />
        </mxCell>
        <mxCell id="ncHVxqRM9er0EpKqG4Er-177" value="&lt;div&gt;codangroup.minelab.com (Plexus Launchpad)&lt;/div&gt;&lt;div&gt;&lt;br&gt;&lt;/div&gt;" style="image;aspect=fixed;html=1;points=[];align=center;fontSize=12;image=img/lib/azure2/identity/Users.svg;" parent="1" vertex="1">
          <mxGeometry x="-1960" y="10" width="64" height="70" as="geometry" />
        </mxCell>
        <mxCell id="ncHVxqRM9er0EpKqG4Er-179" style="edgeStyle=orthogonalEdgeStyle;rounded=0;orthogonalLoop=1;jettySize=auto;html=1;entryX=0.5;entryY=0;entryDx=0;entryDy=0;entryPerimeter=0;" parent="1" source="ncHVxqRM9er0EpKqG4Er-177" target="ncHVxqRM9er0EpKqG4Er-128" edge="1">
          <mxGeometry relative="1" as="geometry" />
        </mxCell>
        <mxCell id="ncHVxqRM9er0EpKqG4Er-163" value="SAP Identity Authentication Service (Prod)&lt;div&gt;ajarfrl29.accounts.ondemand.com&lt;/div&gt;" style="verticalLabelPosition=bottom;html=1;verticalAlign=top;align=center;strokeColor=none;fillColor=#00BEF2;shape=mxgraph.azure.multi_factor_authentication;pointerEvents=1;" parent="1" vertex="1">
          <mxGeometry x="-2117.5" y="78" width="25" height="50" as="geometry" />
        </mxCell>
        <mxCell id="ncHVxqRM9er0EpKqG4Er-180" style="edgeStyle=orthogonalEdgeStyle;rounded=0;orthogonalLoop=1;jettySize=auto;html=1;entryX=0.5;entryY=0;entryDx=0;entryDy=0;entryPerimeter=0;startArrow=classic;startFill=1;endArrow=none;endFill=0;fillColor=#dae8fc;strokeColor=#6c8ebf;" parent="1" source="ncHVxqRM9er0EpKqG4Er-84" target="ncHVxqRM9er0EpKqG4Er-87" edge="1">
          <mxGeometry relative="1" as="geometry" />
        </mxCell>
        <mxCell id="ncHVxqRM9er0EpKqG4Er-183" style="edgeStyle=orthogonalEdgeStyle;rounded=0;orthogonalLoop=1;jettySize=auto;html=1;entryX=0;entryY=0.5;entryDx=0;entryDy=0;entryPerimeter=0;exitX=0.438;exitY=0.929;exitDx=0;exitDy=0;exitPerimeter=0;" parent="1" source="ncHVxqRM9er0EpKqG4Er-182" target="ncHVxqRM9er0EpKqG4Er-128" edge="1">
          <mxGeometry relative="1" as="geometry">
            <Array as="points">
              <mxPoint x="-2230" y="75" />
              <mxPoint x="-2230" y="233" />
            </Array>
          </mxGeometry>
        </mxCell>
        <mxCell id="bUl5pF7d7_YkjjmKOAPD-1" value="&lt;span style=&quot;-webkit-user-drag: none; -webkit-tap-highlight-color: transparent; margin: 0px; padding: 0px; user-select: text; text-align: justify; white-space-collapse: preserve; background-color: rgb(255, 255, 255); font-size: 11pt; line-height: 17px; font-family: Calibri, Calibri_EmbeddedFont, Calibri_MSFontService, sans-serif; font-variant-ligatures: none !important;&quot; class=&quot;TextRun SCXW217972686 BCX0&quot; lang=&quot;EN-AU&quot; data-contrast=&quot;none&quot;&gt;&lt;span style=&quot;-webkit-user-drag: none; -webkit-tap-highlight-color: transparent; margin: 0px; padding: 0px; user-select: text;&quot; class=&quot;NormalTextRun SCXW217972686 BCX0&quot;&gt;codan-extensions-dev-2zgj6vru&lt;/span&gt;&lt;/span&gt;&lt;span style=&quot;-webkit-user-drag: none; -webkit-tap-highlight-color: transparent; margin: 0px; padding: 0px; user-select: text; text-align: justify; white-space-collapse: preserve; background-color: rgb(255, 255, 255); font-size: 11pt; line-height: 17px; font-family: Calibri, Calibri_EmbeddedFont, Calibri_MSFontService, sans-serif;&quot; data-ccp-props=&quot;{&amp;quot;335551550&amp;quot;:6,&amp;quot;335551620&amp;quot;:6,&amp;quot;335559738&amp;quot;:120,&amp;quot;335559739&amp;quot;:120}&quot; class=&quot;EOP SCXW217972686 BCX0&quot;&gt;&amp;nbsp;&lt;/span&gt;" style="text;html=1;align=center;verticalAlign=middle;whiteSpace=wrap;rounded=0;" parent="1" vertex="1">
          <mxGeometry x="-2720" y="300" width="210" height="30" as="geometry" />
        </mxCell>
        <mxCell id="bUl5pF7d7_YkjjmKOAPD-2" value="&lt;span style=&quot;-webkit-user-drag: none; -webkit-tap-highlight-color: transparent; margin: 0px; padding: 0px; user-select: text; text-align: justify; white-space-collapse: preserve; background-color: rgb(255, 255, 255); font-size: 11pt; line-height: 17px; font-family: Calibri, Calibri_EmbeddedFont, Calibri_MSFontService, sans-serif; font-variant-ligatures: none !important;&quot; class=&quot;TextRun SCXW126268761 BCX0&quot; lang=&quot;EN-US&quot; data-contrast=&quot;none&quot;&gt;&lt;span style=&quot;-webkit-user-drag: none; -webkit-tap-highlight-color: transparent; margin: 0px; padding: 0px; user-select: text;&quot; class=&quot;NormalTextRun SCXW126268761 BCX0&quot;&gt;codan-extensions-test-&lt;/span&gt;&lt;span style=&quot;-webkit-user-drag: none; -webkit-tap-highlight-color: transparent; margin: 0px; padding: 0px; user-select: text;&quot; class=&quot;NormalTextRun SCXW126268761 BCX0&quot;&gt;x3prv1dk&lt;/span&gt;&lt;/span&gt;&lt;span style=&quot;-webkit-user-drag: none; -webkit-tap-highlight-color: transparent; margin: 0px; padding: 0px; user-select: text; text-align: justify; white-space-collapse: preserve; background-color: rgb(255, 255, 255); font-size: 11pt; line-height: 17px; font-family: Calibri, Calibri_EmbeddedFont, Calibri_MSFontService, sans-serif;&quot; data-ccp-props=&quot;{&amp;quot;335551550&amp;quot;:6,&amp;quot;335551620&amp;quot;:6,&amp;quot;335559738&amp;quot;:120,&amp;quot;335559739&amp;quot;:120}&quot; class=&quot;EOP SCXW126268761 BCX0&quot;&gt;&amp;nbsp;&lt;/span&gt;" style="text;html=1;align=center;verticalAlign=middle;whiteSpace=wrap;rounded=0;" parent="1" vertex="1">
          <mxGeometry x="-2480" y="300" width="230" height="30" as="geometry" />
        </mxCell>
        <mxCell id="bUl5pF7d7_YkjjmKOAPD-3" value="&lt;span style=&quot;-webkit-user-drag: none; -webkit-tap-highlight-color: transparent; margin: 0px; padding: 0px; user-select: text; text-align: justify; white-space-collapse: preserve; background-color: rgb(255, 255, 255); font-size: 11pt; line-height: 17px; font-family: Calibri, Calibri_EmbeddedFont, Calibri_MSFontService, sans-serif; font-variant-ligatures: none !important;&quot; class=&quot;TextRun SCXW268006760 BCX0&quot; lang=&quot;EN-AU&quot; data-contrast=&quot;none&quot;&gt;&lt;span style=&quot;-webkit-user-drag: none; -webkit-tap-highlight-color: transparent; margin: 0px; padding: 0px; user-select: text;&quot; class=&quot;NormalTextRun SCXW268006760 BCX0&quot;&gt;codan-extensions-prod-r9nvpaf7&lt;/span&gt;&lt;/span&gt;&lt;span style=&quot;-webkit-user-drag: none; -webkit-tap-highlight-color: transparent; margin: 0px; padding: 0px; user-select: text; text-align: justify; white-space-collapse: preserve; background-color: rgb(255, 255, 255); font-size: 11pt; line-height: 17px; font-family: Calibri, Calibri_EmbeddedFont, Calibri_MSFontService, sans-serif;&quot; data-ccp-props=&quot;{&amp;quot;335551550&amp;quot;:6,&amp;quot;335551620&amp;quot;:6,&amp;quot;335559738&amp;quot;:120,&amp;quot;335559739&amp;quot;:120}&quot; class=&quot;EOP SCXW268006760 BCX0&quot;&gt;&amp;nbsp;&lt;/span&gt;" style="text;html=1;align=center;verticalAlign=middle;whiteSpace=wrap;rounded=0;" parent="1" vertex="1">
          <mxGeometry x="-2220" y="300" width="230" height="30" as="geometry" />
        </mxCell>
        <mxCell id="bUl5pF7d7_YkjjmKOAPD-4" value="&lt;div style=&quot;text-align: justify;&quot;&gt;&lt;font face=&quot;Calibri, Calibri_EmbeddedFont, Calibri_MSFontService, sans-serif&quot;&gt;&lt;span style=&quot;font-size: 14.6667px; font-variant-ligatures: none; white-space-collapse: preserve; background-color: rgb(255, 255, 255);&quot;&gt;codan.ap10.hcs.cloud.sap&lt;/span&gt;&lt;/font&gt;&lt;/div&gt;" style="text;html=1;align=center;verticalAlign=middle;whiteSpace=wrap;rounded=0;" parent="1" vertex="1">
          <mxGeometry x="-1925" y="400" width="230" height="30" as="geometry" />
        </mxCell>
        <mxCell id="bUl5pF7d7_YkjjmKOAPD-5" style="edgeStyle=orthogonalEdgeStyle;rounded=0;orthogonalLoop=1;jettySize=auto;html=1;entryX=0.817;entryY=0.271;entryDx=0;entryDy=0;entryPerimeter=0;fillColor=#d5e8d4;strokeColor=#82b366;" parent="1" source="bUl5pF7d7_YkjjmKOAPD-3" target="ncHVxqRM9er0EpKqG4Er-138" edge="1">
          <mxGeometry relative="1" as="geometry">
            <Array as="points">
              <mxPoint x="-2105" y="670" />
              <mxPoint x="-2204" y="670" />
            </Array>
          </mxGeometry>
        </mxCell>
        <mxCell id="bUl5pF7d7_YkjjmKOAPD-6" style="edgeStyle=orthogonalEdgeStyle;rounded=0;orthogonalLoop=1;jettySize=auto;html=1;fillColor=#647687;strokeColor=#314354;endArrow=none;endFill=0;startArrow=classic;startFill=1;" parent="1" source="ncHVxqRM9er0EpKqG4Er-125" edge="1">
          <mxGeometry relative="1" as="geometry">
            <mxPoint x="-1900" y="940" as="targetPoint" />
          </mxGeometry>
        </mxCell>
      </root>
    </mxGraphModel>
  </diagram>
  <diagram id="orPG-dz7H0J059VUmQmI" name="Page-2">
    <mxGraphModel dx="4676" dy="809" grid="1" gridSize="10" guides="1" tooltips="1" connect="1" arrows="1" fold="1" page="1" pageScale="1" pageWidth="1654" pageHeight="1169" math="0" shadow="0">
      <root>
        <mxCell id="0" />
        <mxCell id="1" parent="0" />
        <mxCell id="FFiNUPR-P0tPr-f4P6k8-1" value="&lt;font style=&quot;font-size: 24px;&quot;&gt;SAP S/4HANA Private Cloud Edition - Tenant ID ODM&lt;/font&gt;" style="swimlane;whiteSpace=wrap;html=1;" vertex="1" parent="1">
          <mxGeometry x="-3291" y="600" width="1620" height="540" as="geometry" />
        </mxCell>
        <mxCell id="FFiNUPR-P0tPr-f4P6k8-11" value="Development" style="swimlane;whiteSpace=wrap;html=1;" vertex="1" parent="FFiNUPR-P0tPr-f4P6k8-1">
          <mxGeometry x="145" y="305" width="390" height="215" as="geometry">
            <mxRectangle x="10" y="235" width="110" height="30" as="alternateBounds" />
          </mxGeometry>
        </mxCell>
        <mxCell id="FFiNUPR-P0tPr-f4P6k8-2" value="" style="group" vertex="1" connectable="0" parent="FFiNUPR-P0tPr-f4P6k8-1">
          <mxGeometry x="21" y="328" width="420" height="200" as="geometry" />
        </mxCell>
        <mxCell id="FFiNUPR-P0tPr-f4P6k8-3" value="" style="group" vertex="1" connectable="0" parent="FFiNUPR-P0tPr-f4P6k8-2">
          <mxGeometry y="35" width="210" height="130" as="geometry" />
        </mxCell>
        <mxCell id="FFiNUPR-P0tPr-f4P6k8-4" value="" style="group" vertex="1" connectable="0" parent="FFiNUPR-P0tPr-f4P6k8-3">
          <mxGeometry width="210" height="130" as="geometry" />
        </mxCell>
        <mxCell id="FFiNUPR-P0tPr-f4P6k8-5" value="HD4&lt;div&gt;vhodmhd4db (10.50.234.36)&lt;/div&gt;&lt;div&gt;vhodmhd4db01 (10.50.234.26)&lt;/div&gt;&lt;div&gt;Physical IP: 10.50.234.12&lt;/div&gt;&lt;div&gt;Schema:SAPHANADB&lt;/div&gt;&lt;div&gt;Instance: 06&lt;/div&gt;&lt;div&gt;500408643&lt;/div&gt;&lt;div&gt;&lt;br&gt;&lt;/div&gt;&lt;div&gt;&lt;br&gt;&lt;/div&gt;&lt;div&gt;&lt;br&gt;&lt;/div&gt;" style="text;html=1;align=center;verticalAlign=middle;whiteSpace=wrap;rounded=0;" vertex="1" parent="FFiNUPR-P0tPr-f4P6k8-4">
          <mxGeometry x="114" y="100" width="210" height="30" as="geometry" />
        </mxCell>
        <mxCell id="FFiNUPR-P0tPr-f4P6k8-6" value="HANADB" style="shape=datastore;whiteSpace=wrap;html=1;" vertex="1" parent="FFiNUPR-P0tPr-f4P6k8-1">
          <mxGeometry x="210" y="340" width="60" height="60" as="geometry" />
        </mxCell>
        <mxCell id="FFiNUPR-P0tPr-f4P6k8-7" style="edgeStyle=orthogonalEdgeStyle;rounded=0;orthogonalLoop=1;jettySize=auto;html=1;exitX=1;exitY=0.5;exitDx=0;exitDy=0;entryX=0;entryY=0.5;entryDx=0;entryDy=0;entryPerimeter=0;startArrow=classic;startFill=1;" edge="1" parent="FFiNUPR-P0tPr-f4P6k8-1" source="FFiNUPR-P0tPr-f4P6k8-6" target="FFiNUPR-P0tPr-f4P6k8-9">
          <mxGeometry relative="1" as="geometry" />
        </mxCell>
        <mxCell id="FFiNUPR-P0tPr-f4P6k8-8" value="" style="group" vertex="1" connectable="0" parent="FFiNUPR-P0tPr-f4P6k8-1">
          <mxGeometry x="345" y="340" width="210" height="125" as="geometry" />
        </mxCell>
        <mxCell id="FFiNUPR-P0tPr-f4P6k8-9" value="" style="fontColor=#0066CC;verticalAlign=top;verticalLabelPosition=bottom;labelPosition=center;align=center;html=1;outlineConnect=0;fillColor=#CCCCCC;strokeColor=#6881B3;gradientColor=none;gradientDirection=north;strokeWidth=2;shape=mxgraph.networks.server;" vertex="1" parent="FFiNUPR-P0tPr-f4P6k8-8">
          <mxGeometry x="80" width="50" height="60" as="geometry" />
        </mxCell>
        <mxCell id="FFiNUPR-P0tPr-f4P6k8-10" value="RD1&lt;br&gt;&lt;div&gt;vhodmrd1ci (10.50.234.34)&lt;/div&gt;&lt;div&gt;vhodmrd1cs (10.50.234.35)&lt;/div&gt;&lt;div&gt;Physical IP: 10.50.234.31&lt;br&gt;&lt;/div&gt;&lt;div&gt;Instance: 00 (CI), 01 (CS)&lt;/div&gt;&lt;div&gt;500408552&lt;/div&gt;&lt;div&gt;&lt;br&gt;&lt;/div&gt;" style="text;html=1;align=center;verticalAlign=middle;whiteSpace=wrap;rounded=0;" vertex="1" parent="FFiNUPR-P0tPr-f4P6k8-8">
          <mxGeometry y="102" width="210" height="34" as="geometry" />
        </mxCell>
        <mxCell id="FFiNUPR-P0tPr-f4P6k8-12" value="" style="group" vertex="1" connectable="0" parent="FFiNUPR-P0tPr-f4P6k8-1">
          <mxGeometry x="595" y="305" width="420" height="200" as="geometry" />
        </mxCell>
        <mxCell id="FFiNUPR-P0tPr-f4P6k8-13" style="edgeStyle=orthogonalEdgeStyle;rounded=0;orthogonalLoop=1;jettySize=auto;html=1;exitX=1;exitY=0.5;exitDx=0;exitDy=0;entryX=0;entryY=0.5;entryDx=0;entryDy=0;entryPerimeter=0;startArrow=classic;startFill=1;" edge="1" parent="FFiNUPR-P0tPr-f4P6k8-12" source="FFiNUPR-P0tPr-f4P6k8-16" target="FFiNUPR-P0tPr-f4P6k8-18">
          <mxGeometry relative="1" as="geometry" />
        </mxCell>
        <mxCell id="FFiNUPR-P0tPr-f4P6k8-14" value="QA" style="swimlane;whiteSpace=wrap;html=1;" vertex="1" parent="FFiNUPR-P0tPr-f4P6k8-12">
          <mxGeometry x="10" width="390" height="200" as="geometry">
            <mxRectangle x="10" y="235" width="110" height="30" as="alternateBounds" />
          </mxGeometry>
        </mxCell>
        <mxCell id="FFiNUPR-P0tPr-f4P6k8-15" value="" style="group" vertex="1" connectable="0" parent="FFiNUPR-P0tPr-f4P6k8-12">
          <mxGeometry y="35" width="210" height="130" as="geometry" />
        </mxCell>
        <mxCell id="FFiNUPR-P0tPr-f4P6k8-16" value="HANADB" style="shape=datastore;whiteSpace=wrap;html=1;" vertex="1" parent="FFiNUPR-P0tPr-f4P6k8-15">
          <mxGeometry x="75" width="60" height="60" as="geometry" />
        </mxCell>
        <mxCell id="FFiNUPR-P0tPr-f4P6k8-17" value="HQ4&lt;div&gt;vhodmhq4db (10.50.234.23)&lt;/div&gt;&lt;div&gt;vhodmhq4db01 (10.50.234.24)&lt;/div&gt;&lt;div&gt;Physical IP: 10.50.234.11&lt;/div&gt;&lt;div&gt;Schema:SAPHANADB&lt;/div&gt;&lt;div&gt;Instance: 04&lt;/div&gt;&lt;div&gt;&lt;br&gt;&lt;/div&gt;" style="text;html=1;align=center;verticalAlign=middle;whiteSpace=wrap;rounded=0;" vertex="1" parent="FFiNUPR-P0tPr-f4P6k8-15">
          <mxGeometry y="100" width="210" height="30" as="geometry" />
        </mxCell>
        <mxCell id="FFiNUPR-P0tPr-f4P6k8-18" value="" style="fontColor=#0066CC;verticalAlign=top;verticalLabelPosition=bottom;labelPosition=center;align=center;html=1;outlineConnect=0;fillColor=#CCCCCC;strokeColor=#6881B3;gradientColor=none;gradientDirection=north;strokeWidth=2;shape=mxgraph.networks.server;" vertex="1" parent="FFiNUPR-P0tPr-f4P6k8-12">
          <mxGeometry x="290" y="35" width="50" height="60" as="geometry" />
        </mxCell>
        <mxCell id="FFiNUPR-P0tPr-f4P6k8-19" value="RT1&lt;br&gt;&lt;div&gt;vhodmrt1ci (10.50.234.40)&lt;/div&gt;&lt;div&gt;vhodmrt1cs (10.50.234.41)&lt;/div&gt;&lt;div&gt;Physical IP: 10.50.234.38&lt;br&gt;&lt;/div&gt;&lt;div&gt;Instance: 00 (CI), 01 (CS)&lt;/div&gt;&lt;div&gt;&lt;br&gt;&lt;/div&gt;" style="text;html=1;align=center;verticalAlign=middle;whiteSpace=wrap;rounded=0;" vertex="1" parent="FFiNUPR-P0tPr-f4P6k8-12">
          <mxGeometry x="210" y="126" width="210" height="34" as="geometry" />
        </mxCell>
        <mxCell id="FFiNUPR-P0tPr-f4P6k8-20" value="" style="group" vertex="1" connectable="0" parent="FFiNUPR-P0tPr-f4P6k8-1">
          <mxGeometry x="1055" y="305" width="420" height="200" as="geometry" />
        </mxCell>
        <mxCell id="FFiNUPR-P0tPr-f4P6k8-21" style="edgeStyle=orthogonalEdgeStyle;rounded=0;orthogonalLoop=1;jettySize=auto;html=1;exitX=1;exitY=0.5;exitDx=0;exitDy=0;entryX=0;entryY=0.5;entryDx=0;entryDy=0;entryPerimeter=0;startArrow=classic;startFill=1;" edge="1" parent="FFiNUPR-P0tPr-f4P6k8-20" source="FFiNUPR-P0tPr-f4P6k8-24" target="FFiNUPR-P0tPr-f4P6k8-26">
          <mxGeometry relative="1" as="geometry" />
        </mxCell>
        <mxCell id="FFiNUPR-P0tPr-f4P6k8-22" value="Production" style="swimlane;whiteSpace=wrap;html=1;" vertex="1" parent="FFiNUPR-P0tPr-f4P6k8-20">
          <mxGeometry x="10" width="390" height="200" as="geometry">
            <mxRectangle x="10" y="235" width="110" height="30" as="alternateBounds" />
          </mxGeometry>
        </mxCell>
        <mxCell id="FFiNUPR-P0tPr-f4P6k8-23" value="" style="group" vertex="1" connectable="0" parent="FFiNUPR-P0tPr-f4P6k8-20">
          <mxGeometry y="35" width="210" height="130" as="geometry" />
        </mxCell>
        <mxCell id="FFiNUPR-P0tPr-f4P6k8-24" value="HANADB" style="shape=datastore;whiteSpace=wrap;html=1;" vertex="1" parent="FFiNUPR-P0tPr-f4P6k8-23">
          <mxGeometry x="75" width="60" height="60" as="geometry" />
        </mxCell>
        <mxCell id="FFiNUPR-P0tPr-f4P6k8-25" value="HP4&lt;div&gt;vhodmhp4db (10.50.234.27)&lt;/div&gt;&lt;div&gt;vhodmhp4db01 (10.50.234.29)&lt;/div&gt;&lt;div&gt;Physical IP: 10.50.234.13&lt;/div&gt;&lt;div&gt;Schema:SAPHANADB&lt;/div&gt;&lt;div&gt;Instance: 02&lt;/div&gt;&lt;div&gt;&lt;br&gt;&lt;/div&gt;" style="text;html=1;align=center;verticalAlign=middle;whiteSpace=wrap;rounded=0;" vertex="1" parent="FFiNUPR-P0tPr-f4P6k8-23">
          <mxGeometry y="100" width="210" height="30" as="geometry" />
        </mxCell>
        <mxCell id="FFiNUPR-P0tPr-f4P6k8-26" value="" style="fontColor=#0066CC;verticalAlign=top;verticalLabelPosition=bottom;labelPosition=center;align=center;html=1;outlineConnect=0;fillColor=#CCCCCC;strokeColor=#6881B3;gradientColor=none;gradientDirection=north;strokeWidth=2;shape=mxgraph.networks.server;" vertex="1" parent="FFiNUPR-P0tPr-f4P6k8-20">
          <mxGeometry x="290" y="35" width="50" height="60" as="geometry" />
        </mxCell>
        <mxCell id="FFiNUPR-P0tPr-f4P6k8-27" value="RP1&lt;br&gt;&lt;div&gt;vhodmrp1ci (10.50.234.45)&lt;/div&gt;&lt;div&gt;vhodmrp1cs (10.50.234.46)&lt;/div&gt;&lt;div&gt;Physical IP: 10.50.234.43&lt;br&gt;&lt;/div&gt;&lt;div&gt;Instance: 00 (CI), 01 (CS)&lt;/div&gt;&lt;div&gt;&lt;br&gt;&lt;/div&gt;" style="text;html=1;align=center;verticalAlign=middle;whiteSpace=wrap;rounded=0;" vertex="1" parent="FFiNUPR-P0tPr-f4P6k8-20">
          <mxGeometry x="210" y="126" width="210" height="34" as="geometry" />
        </mxCell>
        <mxCell id="LRzR78ZYtu18tPBi2lKD-5" style="edgeStyle=orthogonalEdgeStyle;rounded=0;orthogonalLoop=1;jettySize=auto;html=1;fillColor=#60a917;strokeColor=#2D7600;" edge="1" parent="FFiNUPR-P0tPr-f4P6k8-1" source="LRzR78ZYtu18tPBi2lKD-2">
          <mxGeometry relative="1" as="geometry">
            <mxPoint x="441" y="340" as="targetPoint" />
            <Array as="points">
              <mxPoint x="442" y="80" />
              <mxPoint x="442" y="340" />
            </Array>
          </mxGeometry>
        </mxCell>
        <mxCell id="LRzR78ZYtu18tPBi2lKD-10" style="edgeStyle=orthogonalEdgeStyle;rounded=0;orthogonalLoop=1;jettySize=auto;html=1;fillColor=#60a917;strokeColor=#2D7600;" edge="1" parent="FFiNUPR-P0tPr-f4P6k8-1" source="LRzR78ZYtu18tPBi2lKD-2">
          <mxGeometry relative="1" as="geometry">
            <mxPoint x="901" y="340" as="targetPoint" />
            <Array as="points">
              <mxPoint x="902" y="80" />
              <mxPoint x="902" y="340" />
            </Array>
          </mxGeometry>
        </mxCell>
        <mxCell id="LRzR78ZYtu18tPBi2lKD-2" value="Webdispatcher (non-prod)&lt;div&gt;vhodmws1wd01 (10.50.234.21)&lt;/div&gt;" style="fontColor=#000000;verticalAlign=top;verticalLabelPosition=bottom;labelPosition=center;align=center;html=1;outlineConnect=0;fillColor=#CCCCCC;strokeColor=#6881B3;gradientColor=none;gradientDirection=north;strokeWidth=2;shape=mxgraph.networks.nas_filer;" vertex="1" parent="FFiNUPR-P0tPr-f4P6k8-1">
          <mxGeometry x="555" y="50" width="100" height="35" as="geometry" />
        </mxCell>
        <mxCell id="LRzR78ZYtu18tPBi2lKD-13" style="edgeStyle=orthogonalEdgeStyle;rounded=0;orthogonalLoop=1;jettySize=auto;html=1;fillColor=#60a917;strokeColor=#2D7600;" edge="1" parent="FFiNUPR-P0tPr-f4P6k8-1" source="LRzR78ZYtu18tPBi2lKD-3">
          <mxGeometry relative="1" as="geometry">
            <mxPoint x="1361" y="330" as="targetPoint" />
            <Array as="points">
              <mxPoint x="1362" y="80" />
              <mxPoint x="1362" y="330" />
            </Array>
          </mxGeometry>
        </mxCell>
        <mxCell id="LRzR78ZYtu18tPBi2lKD-3" value="Webdispatcher (prod)&lt;div&gt;vhodmws3wd01 (10.50.234.22)&lt;/div&gt;" style="fontColor=#000000;verticalAlign=top;verticalLabelPosition=bottom;labelPosition=center;align=center;html=1;outlineConnect=0;fillColor=#CCCCCC;strokeColor=#6881B3;gradientColor=none;gradientDirection=north;strokeWidth=2;shape=mxgraph.networks.nas_filer;" vertex="1" parent="FFiNUPR-P0tPr-f4P6k8-1">
          <mxGeometry x="981" y="50" width="100" height="35" as="geometry" />
        </mxCell>
        <mxCell id="A2q-9Z5ocEOl7eWk4JQq-46" value="&lt;font style=&quot;font-size: 24px;&quot;&gt;Codan Corporate Network&lt;/font&gt;" style="swimlane;whiteSpace=wrap;html=1;" vertex="1" parent="1">
          <mxGeometry x="-3290" y="420" width="1620" height="140" as="geometry" />
        </mxCell>
        <mxCell id="FFiNUPR-P0tPr-f4P6k8-32" value="" style="verticalAlign=top;verticalLabelPosition=bottom;labelPosition=center;align=center;html=1;outlineConnect=0;fillColor=#e1d5e7;strokeColor=#9673a6;gradientDirection=north;strokeWidth=2;shape=mxgraph.networks.desktop_pc;" vertex="1" parent="A2q-9Z5ocEOl7eWk4JQq-46">
          <mxGeometry x="120" y="50" width="30" height="60" as="geometry" />
        </mxCell>
        <mxCell id="FFiNUPR-P0tPr-f4P6k8-33" value="Avalara&lt;div&gt;auazravc01&lt;br&gt;&lt;div&gt;&lt;br&gt;&lt;/div&gt;&lt;/div&gt;" style="text;html=1;align=center;verticalAlign=middle;whiteSpace=wrap;rounded=0;" vertex="1" parent="A2q-9Z5ocEOl7eWk4JQq-46">
          <mxGeometry x="30" y="65" width="80" height="30" as="geometry" />
        </mxCell>
        <mxCell id="u3HcybCwE4aE1t3y1rkR-8" style="edgeStyle=orthogonalEdgeStyle;rounded=0;orthogonalLoop=1;jettySize=auto;html=1;exitX=0.5;exitY=1;exitDx=0;exitDy=0;exitPerimeter=0;fillColor=#0050ef;strokeColor=#001DBC;" edge="1" parent="A2q-9Z5ocEOl7eWk4JQq-46" source="u3HcybCwE4aE1t3y1rkR-5">
          <mxGeometry relative="1" as="geometry">
            <mxPoint x="920" y="520" as="targetPoint" />
            <mxPoint x="1430" y="20" as="sourcePoint" />
            <Array as="points">
              <mxPoint x="1445" y="430" />
              <mxPoint x="921" y="430" />
              <mxPoint x="921" y="520" />
            </Array>
          </mxGeometry>
        </mxCell>
        <mxCell id="u3HcybCwE4aE1t3y1rkR-9" style="edgeStyle=orthogonalEdgeStyle;rounded=0;orthogonalLoop=1;jettySize=auto;html=1;fillColor=#0050ef;strokeColor=#001DBC;" edge="1" parent="A2q-9Z5ocEOl7eWk4JQq-46">
          <mxGeometry relative="1" as="geometry">
            <mxPoint x="460" y="520" as="targetPoint" />
            <mxPoint x="1445.066666666667" y="50" as="sourcePoint" />
            <Array as="points">
              <mxPoint x="1445" y="430" />
              <mxPoint x="461" y="430" />
              <mxPoint x="461" y="520" />
            </Array>
          </mxGeometry>
        </mxCell>
        <mxCell id="u3HcybCwE4aE1t3y1rkR-5" value="" style="fontColor=#ffffff;verticalAlign=top;verticalLabelPosition=bottom;labelPosition=center;align=center;html=1;outlineConnect=0;fillColor=#0050ef;strokeColor=#001DBC;gradientDirection=north;strokeWidth=2;shape=mxgraph.networks.desktop_pc;" vertex="1" parent="A2q-9Z5ocEOl7eWk4JQq-46">
          <mxGeometry x="1430" y="50" width="30" height="60" as="geometry" />
        </mxCell>
        <mxCell id="u3HcybCwE4aE1t3y1rkR-6" value="SAPRouter and DNS Forwarder&lt;div&gt;auazrsaprdns01&lt;br&gt;&lt;div&gt;&lt;br&gt;&lt;/div&gt;&lt;/div&gt;" style="text;html=1;align=center;verticalAlign=middle;whiteSpace=wrap;rounded=0;" vertex="1" parent="A2q-9Z5ocEOl7eWk4JQq-46">
          <mxGeometry x="1470" y="65" width="80" height="30" as="geometry" />
        </mxCell>
        <mxCell id="LRzR78ZYtu18tPBi2lKD-1" value="&lt;div&gt;fioridev.codanad.local:8080&lt;/div&gt;" style="image;aspect=fixed;html=1;points=[];align=center;fontSize=12;image=img/lib/azure2/identity/Users.svg;" vertex="1" parent="A2q-9Z5ocEOl7eWk4JQq-46">
          <mxGeometry x="340" y="35" width="64" height="70" as="geometry" />
        </mxCell>
        <mxCell id="LRzR78ZYtu18tPBi2lKD-6" value="&lt;div&gt;fioritest.codanad.local:8080&lt;/div&gt;" style="image;aspect=fixed;html=1;points=[];align=center;fontSize=12;image=img/lib/azure2/identity/Users.svg;" vertex="1" parent="A2q-9Z5ocEOl7eWk4JQq-46">
          <mxGeometry x="745" y="35" width="64" height="70" as="geometry" />
        </mxCell>
        <mxCell id="LRzR78ZYtu18tPBi2lKD-11" value="&lt;div&gt;fioriprod.codanad.local:8080&lt;/div&gt;" style="image;aspect=fixed;html=1;points=[];align=center;fontSize=12;image=img/lib/azure2/identity/Users.svg;" vertex="1" parent="A2q-9Z5ocEOl7eWk4JQq-46">
          <mxGeometry x="1130" y="35" width="64" height="70" as="geometry" />
        </mxCell>
        <mxCell id="FFiNUPR-P0tPr-f4P6k8-34" style="edgeStyle=orthogonalEdgeStyle;rounded=0;orthogonalLoop=1;jettySize=auto;html=1;exitX=0.5;exitY=1;exitDx=0;exitDy=0;exitPerimeter=0;fillColor=#e1d5e7;strokeColor=#9673a6;endArrow=none;endFill=0;entryX=0;entryY=0.15;entryDx=0;entryDy=0;entryPerimeter=0;" edge="1" parent="1" source="FFiNUPR-P0tPr-f4P6k8-32" target="FFiNUPR-P0tPr-f4P6k8-26">
          <mxGeometry relative="1" as="geometry">
            <Array as="points">
              <mxPoint x="-3155" y="870" />
              <mxPoint x="-1940" y="870" />
              <mxPoint x="-1940" y="949" />
            </Array>
          </mxGeometry>
        </mxCell>
        <mxCell id="u3HcybCwE4aE1t3y1rkR-1" value="Third-party Cloud&lt;br&gt;Avalara" style="image;html=1;image=img/lib/clip_art/networking/Cloud_Rack_128x128.png" vertex="1" parent="1">
          <mxGeometry x="-3270" y="161" width="120" height="90" as="geometry" />
        </mxCell>
        <mxCell id="u3HcybCwE4aE1t3y1rkR-2" style="edgeStyle=orthogonalEdgeStyle;rounded=0;orthogonalLoop=1;jettySize=auto;html=1;entryX=0.5;entryY=1;entryDx=0;entryDy=0;fillColor=#e1d5e7;strokeColor=#9673a6;" edge="1" parent="1" source="FFiNUPR-P0tPr-f4P6k8-32" target="u3HcybCwE4aE1t3y1rkR-1">
          <mxGeometry relative="1" as="geometry" />
        </mxCell>
        <mxCell id="u3HcybCwE4aE1t3y1rkR-3" style="edgeStyle=orthogonalEdgeStyle;rounded=0;orthogonalLoop=1;jettySize=auto;html=1;entryX=0.2;entryY=0.061;entryDx=0;entryDy=0;entryPerimeter=0;fillColor=#e1d5e7;strokeColor=#9673a6;endArrow=none;endFill=0;" edge="1" parent="1" source="FFiNUPR-P0tPr-f4P6k8-32" target="FFiNUPR-P0tPr-f4P6k8-18">
          <mxGeometry relative="1" as="geometry">
            <Array as="points">
              <mxPoint x="-3155" y="870" />
              <mxPoint x="-2396" y="870" />
            </Array>
          </mxGeometry>
        </mxCell>
        <mxCell id="u3HcybCwE4aE1t3y1rkR-4" style="edgeStyle=orthogonalEdgeStyle;rounded=0;orthogonalLoop=1;jettySize=auto;html=1;entryX=0.2;entryY=0.039;entryDx=0;entryDy=0;entryPerimeter=0;fillColor=#e1d5e7;strokeColor=#9673a6;startArrow=classic;startFill=1;endArrow=none;endFill=0;" edge="1" parent="1" source="FFiNUPR-P0tPr-f4P6k8-32" target="FFiNUPR-P0tPr-f4P6k8-9">
          <mxGeometry relative="1" as="geometry">
            <Array as="points">
              <mxPoint x="-3155" y="870" />
              <mxPoint x="-2856" y="870" />
            </Array>
          </mxGeometry>
        </mxCell>
        <mxCell id="u3HcybCwE4aE1t3y1rkR-7" style="edgeStyle=orthogonalEdgeStyle;rounded=0;orthogonalLoop=1;jettySize=auto;html=1;entryX=0.747;entryY=-0.028;entryDx=0;entryDy=0;entryPerimeter=0;fillColor=#0050ef;strokeColor=#001DBC;" edge="1" parent="1" source="u3HcybCwE4aE1t3y1rkR-5" target="FFiNUPR-P0tPr-f4P6k8-26">
          <mxGeometry relative="1" as="geometry">
            <Array as="points">
              <mxPoint x="-1845" y="850" />
              <mxPoint x="-1909" y="850" />
            </Array>
          </mxGeometry>
        </mxCell>
        <mxCell id="5aAaicJ4syj4Aj7y8P0N-1" value="&lt;font style=&quot;font-size: 24px;&quot;&gt;SF HCM Dev&lt;/font&gt;&lt;div&gt;&lt;font style=&quot;font-size: 24px;&quot;&gt;&lt;br&gt;&lt;/font&gt;&lt;/div&gt;" style="html=1;whiteSpace=wrap;strokeColor=none;fillColor=#0079D6;labelPosition=center;verticalLabelPosition=middle;verticalAlign=top;align=center;fontSize=12;outlineConnect=0;spacingTop=-6;fontColor=#FFFFFF;sketch=0;shape=mxgraph.sitemap.cloud;" vertex="1" parent="1">
          <mxGeometry x="-3030" y="51" width="170" height="114" as="geometry" />
        </mxCell>
        <mxCell id="5aAaicJ4syj4Aj7y8P0N-2" value="&lt;div&gt;&lt;font style=&quot;font-size: 24px;&quot;&gt;SF ECP Dev&lt;/font&gt;&lt;/div&gt;" style="html=1;whiteSpace=wrap;strokeColor=none;fillColor=#0079D6;labelPosition=center;verticalLabelPosition=middle;verticalAlign=top;align=center;fontSize=12;outlineConnect=0;spacingTop=-6;fontColor=#FFFFFF;sketch=0;shape=mxgraph.sitemap.cloud;" vertex="1" parent="1">
          <mxGeometry x="-2800" y="51" width="170" height="114" as="geometry" />
        </mxCell>
        <mxCell id="5aAaicJ4syj4Aj7y8P0N-3" value="&lt;font style=&quot;font-size: 24px;&quot;&gt;SF HCM Test&lt;/font&gt;&lt;div&gt;&lt;font style=&quot;font-size: 24px;&quot;&gt;&lt;br&gt;&lt;/font&gt;&lt;/div&gt;" style="html=1;whiteSpace=wrap;strokeColor=none;fillColor=#0079D6;labelPosition=center;verticalLabelPosition=middle;verticalAlign=top;align=center;fontSize=12;outlineConnect=0;spacingTop=-6;fontColor=#FFFFFF;sketch=0;shape=mxgraph.sitemap.cloud;" vertex="1" parent="1">
          <mxGeometry x="-2580" y="51" width="170" height="114" as="geometry" />
        </mxCell>
        <mxCell id="5aAaicJ4syj4Aj7y8P0N-4" value="&lt;div&gt;&lt;font style=&quot;font-size: 24px;&quot;&gt;SF ECP Test&lt;/font&gt;&lt;/div&gt;" style="html=1;whiteSpace=wrap;strokeColor=none;fillColor=#0079D6;labelPosition=center;verticalLabelPosition=middle;verticalAlign=top;align=center;fontSize=12;outlineConnect=0;spacingTop=-6;fontColor=#FFFFFF;sketch=0;shape=mxgraph.sitemap.cloud;" vertex="1" parent="1">
          <mxGeometry x="-2350" y="51" width="170" height="114" as="geometry" />
        </mxCell>
        <mxCell id="5aAaicJ4syj4Aj7y8P0N-5" value="&lt;font style=&quot;font-size: 24px;&quot;&gt;SF HCM Prod&lt;/font&gt;&lt;div&gt;&lt;font style=&quot;font-size: 24px;&quot;&gt;&lt;br&gt;&lt;/font&gt;&lt;/div&gt;" style="html=1;whiteSpace=wrap;strokeColor=none;fillColor=#0079D6;labelPosition=center;verticalLabelPosition=middle;verticalAlign=top;align=center;fontSize=12;outlineConnect=0;spacingTop=-6;fontColor=#FFFFFF;sketch=0;shape=mxgraph.sitemap.cloud;" vertex="1" parent="1">
          <mxGeometry x="-2110" y="51" width="170" height="114" as="geometry" />
        </mxCell>
        <mxCell id="5aAaicJ4syj4Aj7y8P0N-6" value="&lt;div&gt;&lt;font style=&quot;font-size: 24px;&quot;&gt;SF ECP Prod&lt;/font&gt;&lt;/div&gt;" style="html=1;whiteSpace=wrap;strokeColor=none;fillColor=#0079D6;labelPosition=center;verticalLabelPosition=middle;verticalAlign=top;align=center;fontSize=12;outlineConnect=0;spacingTop=-6;fontColor=#FFFFFF;sketch=0;shape=mxgraph.sitemap.cloud;" vertex="1" parent="1">
          <mxGeometry x="-1880" y="51" width="170" height="114" as="geometry" />
        </mxCell>
        <mxCell id="_ifHQTaUOixp_UvfGdJw-1" value="codanlimitD&lt;div&gt;performancemanager10.successfactors.com/login?company=codanlimitD&lt;br&gt;743754824&lt;/div&gt;" style="text;html=1;align=center;verticalAlign=middle;whiteSpace=wrap;rounded=0;" vertex="1" parent="1">
          <mxGeometry x="-2975" y="181" width="60" height="30" as="geometry" />
        </mxCell>
        <mxCell id="fuQf3BVfZqPTrNdhn-3g-7" style="edgeStyle=orthogonalEdgeStyle;rounded=0;orthogonalLoop=1;jettySize=auto;html=1;fillColor=#0050ef;strokeColor=#001DBC;" edge="1" parent="1" source="_ifHQTaUOixp_UvfGdJw-2" target="u3HcybCwE4aE1t3y1rkR-5">
          <mxGeometry relative="1" as="geometry">
            <Array as="points">
              <mxPoint x="-2740" y="400" />
              <mxPoint x="-1845" y="400" />
            </Array>
          </mxGeometry>
        </mxCell>
        <mxCell id="_ifHQTaUOixp_UvfGdJw-2" value="PXS&lt;br&gt;&lt;div&gt;my660204.payroll.ondemand.com&lt;/div&gt;&lt;div&gt;743826988&lt;/div&gt;&lt;div&gt;&lt;br&gt;&lt;/div&gt;" style="text;html=1;align=center;verticalAlign=middle;whiteSpace=wrap;rounded=0;" vertex="1" parent="1">
          <mxGeometry x="-2745" y="183" width="60" height="30" as="geometry" />
        </mxCell>
        <mxCell id="_ifHQTaUOixp_UvfGdJw-6" value="&lt;font&gt;C0002469119T1&lt;br&gt;&lt;/font&gt;&lt;div&gt;&lt;font&gt;hcm10preview.sapsf.com/login?company=C0002469119T1&lt;br&gt;&lt;/font&gt;&lt;div&gt;&lt;span style=&quot;font-family: Arial, Helvetica, sans-serif; text-align: start;&quot;&gt;&lt;font&gt;740117949&lt;/font&gt;&lt;/span&gt;&lt;/div&gt;&lt;/div&gt;" style="text;html=1;align=center;verticalAlign=middle;whiteSpace=wrap;rounded=0;" vertex="1" parent="1">
          <mxGeometry x="-2525" y="181" width="60" height="30" as="geometry" />
        </mxCell>
        <mxCell id="_ifHQTaUOixp_UvfGdJw-7" value="&lt;font&gt;PXT&lt;br&gt;&lt;/font&gt;&lt;div&gt;&lt;font&gt;my660205.payroll.ondemand.com&lt;/font&gt;&lt;/div&gt;&lt;div&gt;&lt;div style=&quot;&quot;&gt;&lt;span style=&quot;background-color: initial; text-wrap-mode: nowrap;&quot;&gt;&lt;font face=&quot;72, 72full, Arial, Helvetica, sans-serif&quot;&gt;742826996&lt;/font&gt;&lt;/span&gt;&lt;/div&gt;&lt;br&gt;&lt;/div&gt;" style="text;html=1;align=center;verticalAlign=middle;whiteSpace=wrap;rounded=0;" vertex="1" parent="1">
          <mxGeometry x="-2295" y="183" width="60" height="30" as="geometry" />
        </mxCell>
        <mxCell id="_ifHQTaUOixp_UvfGdJw-9" value="&lt;font&gt;PXU&lt;br&gt;&lt;/font&gt;&lt;div&gt;&lt;font&gt;my660206.payroll.ondemand.com&lt;/font&gt;&lt;/div&gt;&lt;div&gt;&lt;div style=&quot;&quot;&gt;&lt;span style=&quot;background-color: initial; text-wrap-mode: nowrap;&quot;&gt;&lt;font face=&quot;72, 72full, Arial, Helvetica, sans-serif&quot;&gt;742826988&lt;/font&gt;&lt;/span&gt;&lt;/div&gt;&lt;br&gt;&lt;/div&gt;" style="text;html=1;align=center;verticalAlign=middle;whiteSpace=wrap;rounded=0;" vertex="1" parent="1">
          <mxGeometry x="-1825" y="183" width="60" height="32" as="geometry" />
        </mxCell>
        <mxCell id="_ifHQTaUOixp_UvfGdJw-10" value="&lt;font&gt;C0002469119P&lt;br&gt;&lt;/font&gt;&lt;div&gt;&lt;font&gt;performancemanager10.successfactors.com/login?company=C0002469119P&lt;br&gt;&lt;/font&gt;&lt;div&gt;&lt;span style=&quot;font-family: Arial, Helvetica, sans-serif; text-align: start;&quot;&gt;&lt;font&gt;740117929&lt;/font&gt;&lt;/span&gt;&lt;/div&gt;&lt;/div&gt;" style="text;html=1;align=center;verticalAlign=middle;whiteSpace=wrap;rounded=0;" vertex="1" parent="1">
          <mxGeometry x="-2055" y="183" width="60" height="30" as="geometry" />
        </mxCell>
        <mxCell id="y2sUk77hl7a7hczb07x0-4" style="edgeStyle=orthogonalEdgeStyle;rounded=0;orthogonalLoop=1;jettySize=auto;html=1;fillColor=#f8cecc;strokeColor=#b85450;endArrow=none;endFill=0;startArrow=classic;startFill=1;" edge="1" parent="1" source="8k_YexadOLR-lbQNAXNU-1" target="FFiNUPR-P0tPr-f4P6k8-9">
          <mxGeometry relative="1" as="geometry">
            <Array as="points">
              <mxPoint x="-3100" y="65" />
              <mxPoint x="-3100" y="790" />
              <mxPoint x="-2841" y="790" />
            </Array>
          </mxGeometry>
        </mxCell>
        <mxCell id="y2sUk77hl7a7hczb07x0-5" style="edgeStyle=orthogonalEdgeStyle;rounded=0;orthogonalLoop=1;jettySize=auto;html=1;endArrow=none;endFill=0;startArrow=classic;startFill=1;fillColor=#ffe6cc;strokeColor=#d79b00;" edge="1" parent="1" source="8k_YexadOLR-lbQNAXNU-1" target="FFiNUPR-P0tPr-f4P6k8-18">
          <mxGeometry relative="1" as="geometry">
            <Array as="points">
              <mxPoint x="-3100" y="65" />
              <mxPoint x="-3100" y="790" />
              <mxPoint x="-2381" y="790" />
            </Array>
          </mxGeometry>
        </mxCell>
        <mxCell id="y2sUk77hl7a7hczb07x0-6" style="edgeStyle=orthogonalEdgeStyle;rounded=0;orthogonalLoop=1;jettySize=auto;html=1;fillColor=#ffe6cc;strokeColor=#d79b00;" edge="1" parent="1" source="8k_YexadOLR-lbQNAXNU-1" target="FFiNUPR-P0tPr-f4P6k8-26">
          <mxGeometry relative="1" as="geometry">
            <Array as="points">
              <mxPoint x="-3100" y="65" />
              <mxPoint x="-3100" y="790" />
              <mxPoint x="-1921" y="790" />
            </Array>
          </mxGeometry>
        </mxCell>
        <mxCell id="8k_YexadOLR-lbQNAXNU-1" value="Third-party Cloud&lt;br&gt;BSM/Shopify" style="image;html=1;image=img/lib/clip_art/networking/Cloud_Rack_128x128.png" vertex="1" parent="1">
          <mxGeometry x="-3270" y="20" width="120" height="90" as="geometry" />
        </mxCell>
        <mxCell id="fuQf3BVfZqPTrNdhn-3g-5" style="edgeStyle=orthogonalEdgeStyle;rounded=0;orthogonalLoop=1;jettySize=auto;html=1;entryX=0.5;entryY=0;entryDx=0;entryDy=0;entryPerimeter=0;fillColor=#0050ef;strokeColor=#001DBC;" edge="1" parent="1" source="_ifHQTaUOixp_UvfGdJw-9" target="u3HcybCwE4aE1t3y1rkR-5">
          <mxGeometry relative="1" as="geometry">
            <Array as="points">
              <mxPoint x="-1810" y="400" />
              <mxPoint x="-1845" y="400" />
            </Array>
          </mxGeometry>
        </mxCell>
        <mxCell id="fuQf3BVfZqPTrNdhn-3g-6" style="edgeStyle=orthogonalEdgeStyle;rounded=0;orthogonalLoop=1;jettySize=auto;html=1;entryX=0.5;entryY=0;entryDx=0;entryDy=0;entryPerimeter=0;fillColor=#0050ef;strokeColor=#001DBC;" edge="1" parent="1" source="_ifHQTaUOixp_UvfGdJw-7" target="u3HcybCwE4aE1t3y1rkR-5">
          <mxGeometry relative="1" as="geometry">
            <Array as="points">
              <mxPoint x="-2265" y="400" />
              <mxPoint x="-1845" y="400" />
            </Array>
          </mxGeometry>
        </mxCell>
        <mxCell id="y2sUk77hl7a7hczb07x0-1" value="&lt;font style=&quot;font-size: 24px;&quot;&gt;SCI Non-Prod&lt;/font&gt;" style="html=1;whiteSpace=wrap;strokeColor=none;fillColor=#0079D6;labelPosition=center;verticalLabelPosition=middle;verticalAlign=top;align=center;fontSize=12;outlineConnect=0;spacingTop=-6;fontColor=#FFFFFF;sketch=0;shape=mxgraph.sitemap.cloud;" vertex="1" parent="1">
          <mxGeometry x="-2620" y="251" width="180" height="109" as="geometry" />
        </mxCell>
        <mxCell id="y2sUk77hl7a7hczb07x0-2" value="&lt;font style=&quot;font-size: 24px;&quot;&gt;SCI Prod&lt;/font&gt;" style="html=1;whiteSpace=wrap;strokeColor=none;fillColor=#0079D6;labelPosition=center;verticalLabelPosition=middle;verticalAlign=top;align=center;fontSize=12;outlineConnect=0;spacingTop=-6;fontColor=#FFFFFF;sketch=0;shape=mxgraph.sitemap.cloud;" vertex="1" parent="1">
          <mxGeometry x="-2120" y="251" width="180" height="109" as="geometry" />
        </mxCell>
        <mxCell id="y2sUk77hl7a7hczb07x0-7" style="edgeStyle=orthogonalEdgeStyle;rounded=0;orthogonalLoop=1;jettySize=auto;html=1;entryX=0;entryY=0.75;entryDx=0;entryDy=0;entryPerimeter=0;" edge="1" parent="1" source="FFiNUPR-P0tPr-f4P6k8-9" target="y2sUk77hl7a7hczb07x0-1">
          <mxGeometry relative="1" as="geometry">
            <Array as="points">
              <mxPoint x="-2790" y="970" />
              <mxPoint x="-2790" y="333" />
            </Array>
          </mxGeometry>
        </mxCell>
        <mxCell id="y2sUk77hl7a7hczb07x0-10" style="edgeStyle=orthogonalEdgeStyle;rounded=0;orthogonalLoop=1;jettySize=auto;html=1;entryX=1;entryY=0.5;entryDx=0;entryDy=0;entryPerimeter=0;" edge="1" parent="1" source="y2sUk77hl7a7hczb07x0-1" target="5aAaicJ4syj4Aj7y8P0N-1">
          <mxGeometry relative="1" as="geometry">
            <Array as="points">
              <mxPoint x="-2830" y="306" />
              <mxPoint x="-2830" y="108" />
            </Array>
          </mxGeometry>
        </mxCell>
        <mxCell id="y2sUk77hl7a7hczb07x0-11" style="edgeStyle=orthogonalEdgeStyle;rounded=0;orthogonalLoop=1;jettySize=auto;html=1;entryX=1;entryY=0.5;entryDx=0;entryDy=0;entryPerimeter=0;exitX=1;exitY=0.5;exitDx=0;exitDy=0;exitPerimeter=0;" edge="1" parent="1" source="y2sUk77hl7a7hczb07x0-1" target="5aAaicJ4syj4Aj7y8P0N-3">
          <mxGeometry relative="1" as="geometry" />
        </mxCell>
        <mxCell id="y2sUk77hl7a7hczb07x0-13" style="edgeStyle=orthogonalEdgeStyle;rounded=0;orthogonalLoop=1;jettySize=auto;html=1;entryX=0;entryY=0.75;entryDx=0;entryDy=0;entryPerimeter=0;exitX=1;exitY=0.5;exitDx=0;exitDy=0;exitPerimeter=0;" edge="1" parent="1" source="FFiNUPR-P0tPr-f4P6k8-18" target="y2sUk77hl7a7hczb07x0-1">
          <mxGeometry relative="1" as="geometry">
            <Array as="points">
              <mxPoint x="-2330" y="970" />
              <mxPoint x="-2330" y="750" />
              <mxPoint x="-2790" y="750" />
              <mxPoint x="-2790" y="333" />
            </Array>
          </mxGeometry>
        </mxCell>
        <mxCell id="y2sUk77hl7a7hczb07x0-14" style="edgeStyle=orthogonalEdgeStyle;rounded=0;orthogonalLoop=1;jettySize=auto;html=1;entryX=1;entryY=0.75;entryDx=0;entryDy=0;entryPerimeter=0;" edge="1" parent="1" source="FFiNUPR-P0tPr-f4P6k8-26" target="y2sUk77hl7a7hczb07x0-2">
          <mxGeometry relative="1" as="geometry">
            <Array as="points">
              <mxPoint x="-1880" y="970" />
              <mxPoint x="-1880" y="333" />
            </Array>
          </mxGeometry>
        </mxCell>
        <mxCell id="y2sUk77hl7a7hczb07x0-16" style="edgeStyle=orthogonalEdgeStyle;rounded=0;orthogonalLoop=1;jettySize=auto;html=1;entryX=1;entryY=0.5;entryDx=0;entryDy=0;entryPerimeter=0;" edge="1" parent="1" source="y2sUk77hl7a7hczb07x0-2" target="5aAaicJ4syj4Aj7y8P0N-5">
          <mxGeometry relative="1" as="geometry">
            <Array as="points">
              <mxPoint x="-1920" y="306" />
              <mxPoint x="-1920" y="108" />
            </Array>
          </mxGeometry>
        </mxCell>
        <mxCell id="LRzR78ZYtu18tPBi2lKD-4" style="edgeStyle=orthogonalEdgeStyle;rounded=0;orthogonalLoop=1;jettySize=auto;html=1;entryX=0;entryY=0.5;entryDx=0;entryDy=0;entryPerimeter=0;fillColor=#60a917;strokeColor=#2D7600;" edge="1" parent="1" source="LRzR78ZYtu18tPBi2lKD-1" target="LRzR78ZYtu18tPBi2lKD-2">
          <mxGeometry relative="1" as="geometry">
            <Array as="points">
              <mxPoint x="-2830" y="490" />
              <mxPoint x="-2830" y="668" />
            </Array>
          </mxGeometry>
        </mxCell>
        <mxCell id="LRzR78ZYtu18tPBi2lKD-8" style="edgeStyle=orthogonalEdgeStyle;rounded=0;orthogonalLoop=1;jettySize=auto;html=1;entryX=1;entryY=0.5;entryDx=0;entryDy=0;entryPerimeter=0;fillColor=#60a917;strokeColor=#2D7600;" edge="1" parent="1" source="LRzR78ZYtu18tPBi2lKD-6" target="LRzR78ZYtu18tPBi2lKD-2">
          <mxGeometry relative="1" as="geometry">
            <Array as="points">
              <mxPoint x="-2530" y="668" />
            </Array>
          </mxGeometry>
        </mxCell>
        <mxCell id="LRzR78ZYtu18tPBi2lKD-12" style="edgeStyle=orthogonalEdgeStyle;rounded=0;orthogonalLoop=1;jettySize=auto;html=1;entryX=1;entryY=0.5;entryDx=0;entryDy=0;entryPerimeter=0;fillColor=#60a917;strokeColor=#2D7600;" edge="1" parent="1" source="LRzR78ZYtu18tPBi2lKD-11" target="LRzR78ZYtu18tPBi2lKD-3">
          <mxGeometry relative="1" as="geometry">
            <Array as="points">
              <mxPoint x="-2120" y="668" />
            </Array>
          </mxGeometry>
        </mxCell>
      </root>
    </mxGraphModel>
  </diagram>
</mxfile>
